ISO-10303-21;
HEADER;
/* Generated by software containing ST-Developer
 * from STEP Tools, Inc. (www.steptools.com) 
 */
/* OPTION: using custom renumber hook */

FILE_DESCRIPTION(
/* description */ ('STEP AP214'),
/* implementation_level */ '2;1');

FILE_NAME(
/* name */ 'WAD36-D40-M8-L50',
/* time_stamp */ '2026-05-31T01:09:57+02:00',
/* author */ ('License CC BY-ND 4.0'),
/* organization */ ('CADENAS'),
/* preprocessor_version */ 'ST-DEVELOPER v20',
/* originating_system */ 'PARTsolutions',
/* authorisation */ '  ');

FILE_SCHEMA (('AUTOMOTIVE_DESIGN {1 0 10303 214 3 1 1}'));
ENDSEC;

DATA;
#10=PROPERTY_DEFINITION_REPRESENTATION(#14,#12);
#11=PROPERTY_DEFINITION_REPRESENTATION(#15,#13);
#12=REPRESENTATION('',(#16),#1338);
#13=REPRESENTATION('',(#17),#1338);
#14=PROPERTY_DEFINITION('pmi validation property','',#1347);
#15=PROPERTY_DEFINITION('pmi validation property','',#1347);
#16=VALUE_REPRESENTATION_ITEM('number of annotations',COUNT_MEASURE(0.));
#17=VALUE_REPRESENTATION_ITEM('number of views',COUNT_MEASURE(0.));
#18=CONTEXT_DEPENDENT_SHAPE_REPRESENTATION(#22,#1349);
#19=CONTEXT_DEPENDENT_SHAPE_REPRESENTATION(#23,#1351);
#20=NEXT_ASSEMBLY_USAGE_OCCURRENCE('NAUO1','WAD36-D40-M8-L50-001',
'WAD36-D40-M8-L50-001',#1352,#1353,'');
#21=NEXT_ASSEMBLY_USAGE_OCCURRENCE('NAUO2','WAD36-D40-M8-L50-002',
'WAD36-D40-M8-L50-002',#1352,#1354,'');
#22=(
REPRESENTATION_RELATIONSHIP(' ',' ',#717,#716)
REPRESENTATION_RELATIONSHIP_WITH_TRANSFORMATION(#24)
SHAPE_REPRESENTATION_RELATIONSHIP()
);
#23=(
REPRESENTATION_RELATIONSHIP(' ',' ',#718,#716)
REPRESENTATION_RELATIONSHIP_WITH_TRANSFORMATION(#25)
SHAPE_REPRESENTATION_RELATIONSHIP()
);
#24=ITEM_DEFINED_TRANSFORMATION(' ',' ',#719,#764);
#25=ITEM_DEFINED_TRANSFORMATION(' ',' ',#719,#804);
#26=SHAPE_REPRESENTATION_RELATIONSHIP('','',#717,#28);
#27=SHAPE_REPRESENTATION_RELATIONSHIP('','',#718,#29);
#28=ADVANCED_BREP_SHAPE_REPRESENTATION('',(#711),#1339);
#29=ADVANCED_BREP_SHAPE_REPRESENTATION('',(#712),#1340);
#30=LINE('',#1073,#42);
#31=LINE('',#1075,#43);
#32=LINE('',#1087,#44);
#33=LINE('',#1099,#45);
#34=LINE('',#1111,#46);
#35=LINE('',#1123,#47);
#36=LINE('',#1325,#48);
#37=LINE('',#1326,#49);
#38=LINE('',#1328,#50);
#39=LINE('',#1330,#51);
#40=LINE('',#1332,#52);
#41=LINE('',#1334,#53);
#42=VECTOR('',#847,1000.);
#43=VECTOR('',#848,1000.);
#44=VECTOR('',#851,1000.);
#45=VECTOR('',#854,1000.);
#46=VECTOR('',#857,1000.);
#47=VECTOR('',#860,1000.);
#48=VECTOR('',#971,1000.);
#49=VECTOR('',#972,1000.);
#50=VECTOR('',#975,1000.);
#51=VECTOR('',#978,1000.);
#52=VECTOR('',#981,1000.);
#53=VECTOR('',#984,1000.);
#54=CYLINDRICAL_SURFACE('',#735,20.);
#55=CYLINDRICAL_SURFACE('',#749,4.);
#56=CYLINDRICAL_SURFACE('',#788,3.3235);
#57=PLANE('',#730);
#58=PLANE('',#737);
#59=PLANE('',#739);
#60=PLANE('',#740);
#61=PLANE('',#741);
#62=PLANE('',#742);
#63=PLANE('',#743);
#64=PLANE('',#744);
#65=PLANE('',#745);
#66=PLANE('',#761);
#67=PLANE('',#792);
#68=PLANE('',#797);
#69=PLANE('',#798);
#70=PLANE('',#799);
#71=PLANE('',#800);
#72=PLANE('',#801);
#73=PLANE('',#802);
#74=PLANE('',#803);
#75=CIRCLE('',#721,6.99999999999999);
#76=CIRCLE('',#723,6.99999999999999);
#77=CIRCLE('',#725,6.99999999999999);
#78=CIRCLE('',#727,6.99999999999999);
#79=CIRCLE('',#729,6.99999999999999);
#80=CIRCLE('',#731,6.99999999999999);
#81=CIRCLE('',#732,10.);
#82=CIRCLE('',#734,20.);
#83=CIRCLE('',#736,20.);
#84=CIRCLE('',#746,3.);
#85=CIRCLE('',#748,4.);
#86=CIRCLE('',#750,4.);
#87=CIRCLE('',#752,6.99999999999999);
#88=CIRCLE('',#754,6.99999999999999);
#89=CIRCLE('',#756,6.99999999999999);
#90=CIRCLE('',#758,6.99999999999999);
#91=CIRCLE('',#760,6.99999999999999);
#92=CIRCLE('',#762,6.99999999999999);
#93=CIRCLE('',#766,6.99999999999999);
#94=CIRCLE('',#768,6.99999999999999);
#95=CIRCLE('',#770,6.99999999999999);
#96=CIRCLE('',#772,6.99999999999999);
#97=CIRCLE('',#774,6.99999999999999);
#98=CIRCLE('',#776,6.99999999999999);
#99=CIRCLE('',#778,6.99999999999999);
#100=CIRCLE('',#780,6.99999999999999);
#101=CIRCLE('',#782,6.99999999999999);
#102=CIRCLE('',#784,6.99999999999999);
#103=CIRCLE('',#786,3.3235);
#104=CIRCLE('',#787,4.);
#105=CIRCLE('',#789,3.3235);
#106=CIRCLE('',#791,4.);
#107=CIRCLE('',#793,6.99999999999999);
#108=CIRCLE('',#796,6.99999999999999);
#109=ORIENTED_EDGE('',*,*,#297,.T.);
#110=ORIENTED_EDGE('',*,*,#298,.T.);
#111=ORIENTED_EDGE('',*,*,#299,.T.);
#112=ORIENTED_EDGE('',*,*,#300,.T.);
#113=ORIENTED_EDGE('',*,*,#301,.T.);
#114=ORIENTED_EDGE('',*,*,#302,.T.);
#115=ORIENTED_EDGE('',*,*,#303,.T.);
#116=ORIENTED_EDGE('',*,*,#304,.T.);
#117=ORIENTED_EDGE('',*,*,#305,.T.);
#118=ORIENTED_EDGE('',*,*,#306,.T.);
#119=ORIENTED_EDGE('',*,*,#307,.T.);
#120=ORIENTED_EDGE('',*,*,#308,.T.);
#121=ORIENTED_EDGE('',*,*,#309,.T.);
#122=ORIENTED_EDGE('',*,*,#310,.T.);
#123=ORIENTED_EDGE('',*,*,#311,.T.);
#124=ORIENTED_EDGE('',*,*,#299,.F.);
#125=ORIENTED_EDGE('',*,*,#300,.F.);
#126=ORIENTED_EDGE('',*,*,#303,.F.);
#127=ORIENTED_EDGE('',*,*,#306,.F.);
#128=ORIENTED_EDGE('',*,*,#309,.F.);
#129=ORIENTED_EDGE('',*,*,#312,.F.);
#130=ORIENTED_EDGE('',*,*,#313,.F.);
#131=ORIENTED_EDGE('',*,*,#314,.F.);
#132=ORIENTED_EDGE('',*,*,#313,.T.);
#133=ORIENTED_EDGE('',*,*,#315,.F.);
#134=ORIENTED_EDGE('',*,*,#314,.T.);
#135=ORIENTED_EDGE('',*,*,#315,.T.);
#136=ORIENTED_EDGE('',*,*,#312,.T.);
#137=ORIENTED_EDGE('',*,*,#316,.T.);
#138=ORIENTED_EDGE('',*,*,#317,.T.);
#139=ORIENTED_EDGE('',*,*,#318,.T.);
#140=ORIENTED_EDGE('',*,*,#301,.F.);
#141=ORIENTED_EDGE('',*,*,#298,.F.);
#142=ORIENTED_EDGE('',*,*,#319,.F.);
#143=ORIENTED_EDGE('',*,*,#320,.F.);
#144=ORIENTED_EDGE('',*,*,#321,.F.);
#145=ORIENTED_EDGE('',*,*,#322,.T.);
#146=ORIENTED_EDGE('',*,*,#304,.F.);
#147=ORIENTED_EDGE('',*,*,#302,.F.);
#148=ORIENTED_EDGE('',*,*,#318,.F.);
#149=ORIENTED_EDGE('',*,*,#323,.F.);
#150=ORIENTED_EDGE('',*,*,#324,.F.);
#151=ORIENTED_EDGE('',*,*,#325,.T.);
#152=ORIENTED_EDGE('',*,*,#307,.F.);
#153=ORIENTED_EDGE('',*,*,#305,.F.);
#154=ORIENTED_EDGE('',*,*,#322,.F.);
#155=ORIENTED_EDGE('',*,*,#326,.F.);
#156=ORIENTED_EDGE('',*,*,#327,.F.);
#157=ORIENTED_EDGE('',*,*,#328,.T.);
#158=ORIENTED_EDGE('',*,*,#310,.F.);
#159=ORIENTED_EDGE('',*,*,#308,.F.);
#160=ORIENTED_EDGE('',*,*,#325,.F.);
#161=ORIENTED_EDGE('',*,*,#329,.F.);
#162=ORIENTED_EDGE('',*,*,#330,.F.);
#163=ORIENTED_EDGE('',*,*,#331,.T.);
#164=ORIENTED_EDGE('',*,*,#316,.F.);
#165=ORIENTED_EDGE('',*,*,#311,.F.);
#166=ORIENTED_EDGE('',*,*,#328,.F.);
#167=ORIENTED_EDGE('',*,*,#332,.F.);
#168=ORIENTED_EDGE('',*,*,#333,.F.);
#169=ORIENTED_EDGE('',*,*,#319,.T.);
#170=ORIENTED_EDGE('',*,*,#297,.F.);
#171=ORIENTED_EDGE('',*,*,#317,.F.);
#172=ORIENTED_EDGE('',*,*,#331,.F.);
#173=ORIENTED_EDGE('',*,*,#334,.F.);
#174=ORIENTED_EDGE('',*,*,#335,.F.);
#175=ORIENTED_EDGE('',*,*,#336,.F.);
#176=ORIENTED_EDGE('',*,*,#337,.F.);
#177=ORIENTED_EDGE('',*,*,#336,.T.);
#178=ORIENTED_EDGE('',*,*,#337,.T.);
#179=ORIENTED_EDGE('',*,*,#338,.F.);
#180=ORIENTED_EDGE('',*,*,#332,.T.);
#181=ORIENTED_EDGE('',*,*,#330,.T.);
#182=ORIENTED_EDGE('',*,*,#339,.T.);
#183=ORIENTED_EDGE('',*,*,#340,.T.);
#184=ORIENTED_EDGE('',*,*,#320,.T.);
#185=ORIENTED_EDGE('',*,*,#335,.T.);
#186=ORIENTED_EDGE('',*,*,#341,.T.);
#187=ORIENTED_EDGE('',*,*,#323,.T.);
#188=ORIENTED_EDGE('',*,*,#321,.T.);
#189=ORIENTED_EDGE('',*,*,#342,.T.);
#190=ORIENTED_EDGE('',*,*,#326,.T.);
#191=ORIENTED_EDGE('',*,*,#324,.T.);
#192=ORIENTED_EDGE('',*,*,#329,.T.);
#193=ORIENTED_EDGE('',*,*,#327,.T.);
#194=ORIENTED_EDGE('',*,*,#343,.T.);
#195=ORIENTED_EDGE('',*,*,#338,.T.);
#196=ORIENTED_EDGE('',*,*,#343,.F.);
#197=ORIENTED_EDGE('',*,*,#342,.F.);
#198=ORIENTED_EDGE('',*,*,#341,.F.);
#199=ORIENTED_EDGE('',*,*,#340,.F.);
#200=ORIENTED_EDGE('',*,*,#344,.F.);
#201=ORIENTED_EDGE('',*,*,#339,.F.);
#202=ORIENTED_EDGE('',*,*,#334,.T.);
#203=ORIENTED_EDGE('',*,*,#333,.T.);
#204=ORIENTED_EDGE('',*,*,#344,.T.);
#205=ORIENTED_EDGE('',*,*,#345,.F.);
#206=ORIENTED_EDGE('',*,*,#346,.F.);
#207=ORIENTED_EDGE('',*,*,#347,.F.);
#208=ORIENTED_EDGE('',*,*,#348,.F.);
#209=ORIENTED_EDGE('',*,*,#349,.F.);
#210=ORIENTED_EDGE('',*,*,#350,.F.);
#211=ORIENTED_EDGE('',*,*,#351,.F.);
#212=ORIENTED_EDGE('',*,*,#352,.F.);
#213=ORIENTED_EDGE('',*,*,#353,.F.);
#214=ORIENTED_EDGE('',*,*,#354,.F.);
#215=ORIENTED_EDGE('',*,*,#355,.F.);
#216=ORIENTED_EDGE('',*,*,#356,.F.);
#217=ORIENTED_EDGE('',*,*,#357,.F.);
#218=ORIENTED_EDGE('',*,*,#358,.F.);
#219=ORIENTED_EDGE('',*,*,#359,.F.);
#220=ORIENTED_EDGE('',*,*,#360,.F.);
#221=ORIENTED_EDGE('',*,*,#361,.F.);
#222=ORIENTED_EDGE('',*,*,#362,.T.);
#223=ORIENTED_EDGE('',*,*,#363,.F.);
#224=ORIENTED_EDGE('',*,*,#364,.T.);
#225=ORIENTED_EDGE('',*,*,#365,.F.);
#226=ORIENTED_EDGE('',*,*,#366,.F.);
#227=ORIENTED_EDGE('',*,*,#367,.T.);
#228=ORIENTED_EDGE('',*,*,#368,.F.);
#229=ORIENTED_EDGE('',*,*,#369,.F.);
#230=ORIENTED_EDGE('',*,*,#370,.T.);
#231=ORIENTED_EDGE('',*,*,#371,.F.);
#232=ORIENTED_EDGE('',*,*,#372,.F.);
#233=ORIENTED_EDGE('',*,*,#373,.T.);
#234=ORIENTED_EDGE('',*,*,#374,.F.);
#235=ORIENTED_EDGE('',*,*,#375,.T.);
#236=ORIENTED_EDGE('',*,*,#376,.F.);
#237=ORIENTED_EDGE('',*,*,#377,.T.);
#238=ORIENTED_EDGE('',*,*,#375,.F.);
#239=ORIENTED_EDGE('',*,*,#378,.T.);
#240=ORIENTED_EDGE('',*,*,#377,.F.);
#241=ORIENTED_EDGE('',*,*,#347,.T.);
#242=ORIENTED_EDGE('',*,*,#356,.T.);
#243=ORIENTED_EDGE('',*,*,#379,.T.);
#244=ORIENTED_EDGE('',*,*,#358,.T.);
#245=ORIENTED_EDGE('',*,*,#352,.T.);
#246=ORIENTED_EDGE('',*,*,#349,.T.);
#247=ORIENTED_EDGE('',*,*,#378,.F.);
#248=ORIENTED_EDGE('',*,*,#380,.F.);
#249=ORIENTED_EDGE('',*,*,#381,.F.);
#250=ORIENTED_EDGE('',*,*,#379,.F.);
#251=ORIENTED_EDGE('',*,*,#382,.F.);
#252=ORIENTED_EDGE('',*,*,#383,.T.);
#253=ORIENTED_EDGE('',*,*,#384,.F.);
#254=ORIENTED_EDGE('',*,*,#376,.T.);
#255=ORIENTED_EDGE('',*,*,#370,.F.);
#256=ORIENTED_EDGE('',*,*,#367,.F.);
#257=ORIENTED_EDGE('',*,*,#364,.F.);
#258=ORIENTED_EDGE('',*,*,#362,.F.);
#259=ORIENTED_EDGE('',*,*,#383,.F.);
#260=ORIENTED_EDGE('',*,*,#373,.F.);
#261=ORIENTED_EDGE('',*,*,#353,.T.);
#262=ORIENTED_EDGE('',*,*,#357,.T.);
#263=ORIENTED_EDGE('',*,*,#385,.F.);
#264=ORIENTED_EDGE('',*,*,#360,.T.);
#265=ORIENTED_EDGE('',*,*,#363,.T.);
#266=ORIENTED_EDGE('',*,*,#386,.T.);
#267=ORIENTED_EDGE('',*,*,#350,.T.);
#268=ORIENTED_EDGE('',*,*,#351,.T.);
#269=ORIENTED_EDGE('',*,*,#386,.F.);
#270=ORIENTED_EDGE('',*,*,#365,.T.);
#271=ORIENTED_EDGE('',*,*,#366,.T.);
#272=ORIENTED_EDGE('',*,*,#387,.T.);
#273=ORIENTED_EDGE('',*,*,#345,.T.);
#274=ORIENTED_EDGE('',*,*,#348,.T.);
#275=ORIENTED_EDGE('',*,*,#387,.F.);
#276=ORIENTED_EDGE('',*,*,#368,.T.);
#277=ORIENTED_EDGE('',*,*,#369,.T.);
#278=ORIENTED_EDGE('',*,*,#388,.T.);
#279=ORIENTED_EDGE('',*,*,#354,.T.);
#280=ORIENTED_EDGE('',*,*,#346,.T.);
#281=ORIENTED_EDGE('',*,*,#388,.F.);
#282=ORIENTED_EDGE('',*,*,#371,.T.);
#283=ORIENTED_EDGE('',*,*,#372,.T.);
#284=ORIENTED_EDGE('',*,*,#389,.T.);
#285=ORIENTED_EDGE('',*,*,#380,.T.);
#286=ORIENTED_EDGE('',*,*,#355,.T.);
#287=ORIENTED_EDGE('',*,*,#389,.F.);
#288=ORIENTED_EDGE('',*,*,#374,.T.);
#289=ORIENTED_EDGE('',*,*,#382,.T.);
#290=ORIENTED_EDGE('',*,*,#390,.T.);
#291=ORIENTED_EDGE('',*,*,#359,.T.);
#292=ORIENTED_EDGE('',*,*,#381,.T.);
#293=ORIENTED_EDGE('',*,*,#390,.F.);
#294=ORIENTED_EDGE('',*,*,#384,.T.);
#295=ORIENTED_EDGE('',*,*,#361,.T.);
#296=ORIENTED_EDGE('',*,*,#385,.T.);
#297=EDGE_CURVE('',#391,#392,#449,.T.);
#298=EDGE_CURVE('',#392,#393,#450,.T.);
#299=EDGE_CURVE('',#393,#391,#75,.F.);
#300=EDGE_CURVE('',#394,#393,#76,.F.);
#301=EDGE_CURVE('',#393,#395,#451,.T.);
#302=EDGE_CURVE('',#395,#394,#452,.T.);
#303=EDGE_CURVE('',#396,#394,#77,.F.);
#304=EDGE_CURVE('',#394,#397,#453,.T.);
#305=EDGE_CURVE('',#397,#396,#454,.T.);
#306=EDGE_CURVE('',#398,#396,#78,.F.);
#307=EDGE_CURVE('',#396,#399,#455,.T.);
#308=EDGE_CURVE('',#399,#398,#456,.T.);
#309=EDGE_CURVE('',#400,#398,#79,.F.);
#310=EDGE_CURVE('',#398,#401,#457,.T.);
#311=EDGE_CURVE('',#401,#400,#458,.T.);
#312=EDGE_CURVE('',#391,#400,#80,.F.);
#313=EDGE_CURVE('',#402,#402,#81,.T.);
#314=EDGE_CURVE('',#403,#403,#82,.T.);
#315=EDGE_CURVE('',#404,#404,#83,.T.);
#316=EDGE_CURVE('',#400,#405,#459,.T.);
#317=EDGE_CURVE('',#405,#391,#460,.T.);
#318=EDGE_CURVE('',#406,#395,#30,.T.);
#319=EDGE_CURVE('',#407,#392,#31,.T.);
#320=EDGE_CURVE('',#408,#407,#461,.T.);
#321=EDGE_CURVE('',#406,#408,#462,.T.);
#322=EDGE_CURVE('',#409,#397,#32,.T.);
#323=EDGE_CURVE('',#410,#406,#463,.T.);
#324=EDGE_CURVE('',#409,#410,#464,.T.);
#325=EDGE_CURVE('',#411,#399,#33,.T.);
#326=EDGE_CURVE('',#412,#409,#465,.T.);
#327=EDGE_CURVE('',#411,#412,#466,.T.);
#328=EDGE_CURVE('',#413,#401,#34,.T.);
#329=EDGE_CURVE('',#414,#411,#467,.T.);
#330=EDGE_CURVE('',#413,#414,#468,.T.);
#331=EDGE_CURVE('',#415,#405,#35,.T.);
#332=EDGE_CURVE('',#416,#413,#469,.T.);
#333=EDGE_CURVE('',#415,#416,#470,.T.);
#334=EDGE_CURVE('',#417,#415,#471,.T.);
#335=EDGE_CURVE('',#407,#417,#472,.T.);
#336=EDGE_CURVE('',#418,#418,#84,.T.);
#337=EDGE_CURVE('',#419,#419,#85,.T.);
#338=EDGE_CURVE('',#420,#420,#86,.T.);
#339=EDGE_CURVE('',#414,#416,#87,.T.);
#340=EDGE_CURVE('',#417,#408,#88,.T.);
#341=EDGE_CURVE('',#408,#410,#89,.T.);
#342=EDGE_CURVE('',#410,#412,#90,.T.);
#343=EDGE_CURVE('',#412,#414,#91,.T.);
#344=EDGE_CURVE('',#416,#417,#92,.T.);
#345=EDGE_CURVE('',#421,#422,#473,.T.);
#346=EDGE_CURVE('',#423,#421,#474,.T.);
#347=EDGE_CURVE('',#422,#423,#93,.T.);
#348=EDGE_CURVE('',#422,#424,#475,.T.);
#349=EDGE_CURVE('',#425,#422,#94,.T.);
#350=EDGE_CURVE('',#424,#425,#476,.T.);
#351=EDGE_CURVE('',#425,#426,#477,.T.);
#352=EDGE_CURVE('',#427,#425,#95,.T.);
#353=EDGE_CURVE('',#426,#427,#478,.T.);
#354=EDGE_CURVE('',#428,#423,#479,.T.);
#355=EDGE_CURVE('',#429,#428,#480,.T.);
#356=EDGE_CURVE('',#423,#429,#96,.T.);
#357=EDGE_CURVE('',#427,#430,#481,.T.);
#358=EDGE_CURVE('',#431,#427,#97,.T.);
#359=EDGE_CURVE('',#430,#431,#482,.T.);
#360=EDGE_CURVE('',#432,#433,#483,.T.);
#361=EDGE_CURVE('',#434,#432,#484,.T.);
#362=EDGE_CURVE('',#434,#433,#98,.T.);
#363=EDGE_CURVE('',#433,#435,#485,.T.);
#364=EDGE_CURVE('',#433,#436,#99,.T.);
#365=EDGE_CURVE('',#435,#436,#486,.T.);
#366=EDGE_CURVE('',#436,#437,#487,.T.);
#367=EDGE_CURVE('',#436,#438,#100,.T.);
#368=EDGE_CURVE('',#437,#438,#488,.T.);
#369=EDGE_CURVE('',#438,#439,#489,.T.);
#370=EDGE_CURVE('',#438,#440,#101,.T.);
#371=EDGE_CURVE('',#439,#440,#490,.T.);
#372=EDGE_CURVE('',#440,#441,#491,.T.);
#373=EDGE_CURVE('',#440,#442,#102,.T.);
#374=EDGE_CURVE('',#441,#442,#492,.T.);
#375=EDGE_CURVE('',#443,#443,#103,.T.);
#376=EDGE_CURVE('',#444,#444,#104,.T.);
#377=EDGE_CURVE('',#445,#445,#105,.T.);
#378=EDGE_CURVE('',#446,#446,#106,.T.);
#379=EDGE_CURVE('',#429,#431,#107,.T.);
#380=EDGE_CURVE('',#447,#429,#493,.T.);
#381=EDGE_CURVE('',#431,#447,#494,.T.);
#382=EDGE_CURVE('',#442,#448,#495,.T.);
#383=EDGE_CURVE('',#442,#434,#108,.T.);
#384=EDGE_CURVE('',#448,#434,#496,.T.);
#385=EDGE_CURVE('',#432,#430,#36,.T.);
#386=EDGE_CURVE('',#435,#426,#37,.T.);
#387=EDGE_CURVE('',#437,#424,#38,.T.);
#388=EDGE_CURVE('',#439,#421,#39,.T.);
#389=EDGE_CURVE('',#441,#428,#40,.T.);
#390=EDGE_CURVE('',#448,#447,#41,.T.);
#391=VERTEX_POINT('',#995);
#392=VERTEX_POINT('',#996);
#393=VERTEX_POINT('',#1001);
#394=VERTEX_POINT('',#1005);
#395=VERTEX_POINT('',#1010);
#396=VERTEX_POINT('',#1017);
#397=VERTEX_POINT('',#1022);
#398=VERTEX_POINT('',#1029);
#399=VERTEX_POINT('',#1034);
#400=VERTEX_POINT('',#1041);
#401=VERTEX_POINT('',#1046);
#402=VERTEX_POINT('',#1054);
#403=VERTEX_POINT('',#1057);
#404=VERTEX_POINT('',#1060);
#405=VERTEX_POINT('',#1067);
#406=VERTEX_POINT('',#1074);
#407=VERTEX_POINT('',#1076);
#408=VERTEX_POINT('',#1081);
#409=VERTEX_POINT('',#1088);
#410=VERTEX_POINT('',#1093);
#411=VERTEX_POINT('',#1100);
#412=VERTEX_POINT('',#1105);
#413=VERTEX_POINT('',#1112);
#414=VERTEX_POINT('',#1117);
#415=VERTEX_POINT('',#1124);
#416=VERTEX_POINT('',#1129);
#417=VERTEX_POINT('',#1139);
#418=VERTEX_POINT('',#1146);
#419=VERTEX_POINT('',#1149);
#420=VERTEX_POINT('',#1152);
#421=VERTEX_POINT('',#1172);
#422=VERTEX_POINT('',#1173);
#423=VERTEX_POINT('',#1178);
#424=VERTEX_POINT('',#1185);
#425=VERTEX_POINT('',#1187);
#426=VERTEX_POINT('',#1197);
#427=VERTEX_POINT('',#1199);
#428=VERTEX_POINT('',#1209);
#429=VERTEX_POINT('',#1214);
#430=VERTEX_POINT('',#1221);
#431=VERTEX_POINT('',#1223);
#432=VERTEX_POINT('',#1233);
#433=VERTEX_POINT('',#1234);
#434=VERTEX_POINT('',#1239);
#435=VERTEX_POINT('',#1246);
#436=VERTEX_POINT('',#1248);
#437=VERTEX_POINT('',#1258);
#438=VERTEX_POINT('',#1260);
#439=VERTEX_POINT('',#1270);
#440=VERTEX_POINT('',#1272);
#441=VERTEX_POINT('',#1282);
#442=VERTEX_POINT('',#1284);
#443=VERTEX_POINT('',#1291);
#444=VERTEX_POINT('',#1293);
#445=VERTEX_POINT('',#1296);
#446=VERTEX_POINT('',#1299);
#447=VERTEX_POINT('',#1307);
#448=VERTEX_POINT('',#1317);
#449=B_SPLINE_CURVE_WITH_KNOTS('',3,(#991,#992,#993,#994),.UNSPECIFIED.,
 .F.,.F.,(4,4),(0.00407278059172618,0.00810621245213699),.UNSPECIFIED.);
#450=B_SPLINE_CURVE_WITH_KNOTS('',3,(#997,#998,#999,#1000),
 .UNSPECIFIED.,.F.,.F.,(4,4),(0.00887281575613116,0.0129776798334798),
 .UNSPECIFIED.);
#451=B_SPLINE_CURVE_WITH_KNOTS('',3,(#1006,#1007,#1008,#1009),
 .UNSPECIFIED.,.F.,.F.,(4,4),(0.0129776798334798,0.0170614701162668),
 .UNSPECIFIED.);
#452=B_SPLINE_CURVE_WITH_KNOTS('',3,(#1011,#1012,#1013,#1014),
 .UNSPECIFIED.,.F.,.F.,(4,4),(2.34953866923529E-7,0.00407278059172618),
 .UNSPECIFIED.);
#453=B_SPLINE_CURVE_WITH_KNOTS('',3,(#1018,#1019,#1020,#1021),
 .UNSPECIFIED.,.F.,.F.,(4,4),(0.00407278059172618,0.00810621245213699),
 .UNSPECIFIED.);
#454=B_SPLINE_CURVE_WITH_KNOTS('',3,(#1023,#1024,#1025,#1026),
 .UNSPECIFIED.,.F.,.F.,(4,4),(2.34953866923816E-7,0.00407278059172617),
 .UNSPECIFIED.);
#455=B_SPLINE_CURVE_WITH_KNOTS('',3,(#1030,#1031,#1032,#1033),
 .UNSPECIFIED.,.F.,.F.,(4,4),(0.00407278059172617,0.00810621245213699),
 .UNSPECIFIED.);
#456=B_SPLINE_CURVE_WITH_KNOTS('',3,(#1035,#1036,#1037,#1038),
 .UNSPECIFIED.,.F.,.F.,(4,4),(0.00887281575613115,0.0129776798334798),
 .UNSPECIFIED.);
#457=B_SPLINE_CURVE_WITH_KNOTS('',3,(#1042,#1043,#1044,#1045),
 .UNSPECIFIED.,.F.,.F.,(4,4),(0.0129776798334798,0.0170614701162668),
 .UNSPECIFIED.);
#458=B_SPLINE_CURVE_WITH_KNOTS('',3,(#1047,#1048,#1049,#1050),
 .UNSPECIFIED.,.F.,.F.,(4,4),(2.34953866923529E-7,0.00407278059172617),
 .UNSPECIFIED.);
#459=B_SPLINE_CURVE_WITH_KNOTS('',3,(#1063,#1064,#1065,#1066),
 .UNSPECIFIED.,.F.,.F.,(4,4),(0.00407278059172617,0.00810621245213699),
 .UNSPECIFIED.);
#460=B_SPLINE_CURVE_WITH_KNOTS('',3,(#1068,#1069,#1070,#1071),
 .UNSPECIFIED.,.F.,.F.,(4,4),(2.34953866923816E-7,0.00407278059172618),
 .UNSPECIFIED.);
#461=B_SPLINE_CURVE_WITH_KNOTS('',3,(#1077,#1078,#1079,#1080),
 .UNSPECIFIED.,.F.,.F.,(4,4),(0.0129776798334798,0.0170614701162668),
 .UNSPECIFIED.);
#462=B_SPLINE_CURVE_WITH_KNOTS('',3,(#1082,#1083,#1084,#1085),
 .UNSPECIFIED.,.F.,.F.,(4,4),(0.00887281575613117,0.0129776798334798),
 .UNSPECIFIED.);
#463=B_SPLINE_CURVE_WITH_KNOTS('',3,(#1089,#1090,#1091,#1092),
 .UNSPECIFIED.,.F.,.F.,(4,4),(0.00407278059172617,0.00810621245213699),
 .UNSPECIFIED.);
#464=B_SPLINE_CURVE_WITH_KNOTS('',3,(#1094,#1095,#1096,#1097),
 .UNSPECIFIED.,.F.,.F.,(4,4),(2.34953866923709E-7,0.00407278059172617),
 .UNSPECIFIED.);
#465=B_SPLINE_CURVE_WITH_KNOTS('',3,(#1101,#1102,#1103,#1104),
 .UNSPECIFIED.,.F.,.F.,(4,4),(0.00407278059172618,0.00810621245213699),
 .UNSPECIFIED.);
#466=B_SPLINE_CURVE_WITH_KNOTS('',3,(#1106,#1107,#1108,#1109),
 .UNSPECIFIED.,.F.,.F.,(4,4),(2.34953866923529E-7,0.00407278059172618),
 .UNSPECIFIED.);
#467=B_SPLINE_CURVE_WITH_KNOTS('',3,(#1113,#1114,#1115,#1116),
 .UNSPECIFIED.,.F.,.F.,(4,4),(0.0129776798334798,0.0170614701162668),
 .UNSPECIFIED.);
#468=B_SPLINE_CURVE_WITH_KNOTS('',3,(#1118,#1119,#1120,#1121),
 .UNSPECIFIED.,.F.,.F.,(4,4),(0.00887281575613117,0.0129776798334798),
 .UNSPECIFIED.);
#469=B_SPLINE_CURVE_WITH_KNOTS('',3,(#1125,#1126,#1127,#1128),
 .UNSPECIFIED.,.F.,.F.,(4,4),(0.00407278059172618,0.00810621245213699),
 .UNSPECIFIED.);
#470=B_SPLINE_CURVE_WITH_KNOTS('',3,(#1130,#1131,#1132,#1133),
 .UNSPECIFIED.,.F.,.F.,(4,4),(2.34953866923798E-7,0.00407278059172618),
 .UNSPECIFIED.);
#471=B_SPLINE_CURVE_WITH_KNOTS('',3,(#1135,#1136,#1137,#1138),
 .UNSPECIFIED.,.F.,.F.,(4,4),(0.00407278059172617,0.00810621245213699),
 .UNSPECIFIED.);
#472=B_SPLINE_CURVE_WITH_KNOTS('',3,(#1140,#1141,#1142,#1143),
 .UNSPECIFIED.,.F.,.F.,(4,4),(2.34953866923529E-7,0.00407278059172617),
 .UNSPECIFIED.);
#473=B_SPLINE_CURVE_WITH_KNOTS('',3,(#1168,#1169,#1170,#1171),
 .UNSPECIFIED.,.F.,.F.,(4,4),(2.3495386692352E-7,0.00407278059172618),
 .UNSPECIFIED.);
#474=B_SPLINE_CURVE_WITH_KNOTS('',3,(#1174,#1175,#1176,#1177),
 .UNSPECIFIED.,.F.,.F.,(4,4),(0.0129776798334798,0.0170614701162668),
 .UNSPECIFIED.);
#475=B_SPLINE_CURVE_WITH_KNOTS('',3,(#1181,#1182,#1183,#1184),
 .UNSPECIFIED.,.F.,.F.,(4,4),(0.00407278059172618,0.00810621245213699),
 .UNSPECIFIED.);
#476=B_SPLINE_CURVE_WITH_KNOTS('',3,(#1188,#1189,#1190,#1191),
 .UNSPECIFIED.,.F.,.F.,(4,4),(2.34953866923843E-7,0.00407278059172618),
 .UNSPECIFIED.);
#477=B_SPLINE_CURVE_WITH_KNOTS('',3,(#1193,#1194,#1195,#1196),
 .UNSPECIFIED.,.F.,.F.,(4,4),(0.00407278059172618,0.00810621245213699),
 .UNSPECIFIED.);
#478=B_SPLINE_CURVE_WITH_KNOTS('',3,(#1200,#1201,#1202,#1203),
 .UNSPECIFIED.,.F.,.F.,(4,4),(0.00887281575613116,0.0129776798334798),
 .UNSPECIFIED.);
#479=B_SPLINE_CURVE_WITH_KNOTS('',3,(#1205,#1206,#1207,#1208),
 .UNSPECIFIED.,.F.,.F.,(4,4),(0.00887281575613116,0.0129776798334798),
 .UNSPECIFIED.);
#480=B_SPLINE_CURVE_WITH_KNOTS('',3,(#1210,#1211,#1212,#1213),
 .UNSPECIFIED.,.F.,.F.,(4,4),(0.00407278059172618,0.00810621245213699),
 .UNSPECIFIED.);
#481=B_SPLINE_CURVE_WITH_KNOTS('',3,(#1217,#1218,#1219,#1220),
 .UNSPECIFIED.,.F.,.F.,(4,4),(0.0129776798334798,0.0170614701162668),
 .UNSPECIFIED.);
#482=B_SPLINE_CURVE_WITH_KNOTS('',3,(#1224,#1225,#1226,#1227),
 .UNSPECIFIED.,.F.,.F.,(4,4),(2.3495386692352E-7,0.00407278059172618),
 .UNSPECIFIED.);
#483=B_SPLINE_CURVE_WITH_KNOTS('',3,(#1229,#1230,#1231,#1232),
 .UNSPECIFIED.,.F.,.F.,(4,4),(0.00887281575613116,0.0129776798334798),
 .UNSPECIFIED.);
#484=B_SPLINE_CURVE_WITH_KNOTS('',3,(#1235,#1236,#1237,#1238),
 .UNSPECIFIED.,.F.,.F.,(4,4),(0.00407278059172618,0.00810621245213699),
 .UNSPECIFIED.);
#485=B_SPLINE_CURVE_WITH_KNOTS('',3,(#1242,#1243,#1244,#1245),
 .UNSPECIFIED.,.F.,.F.,(4,4),(0.0129776798334798,0.0170614701162668),
 .UNSPECIFIED.);
#486=B_SPLINE_CURVE_WITH_KNOTS('',3,(#1249,#1250,#1251,#1252),
 .UNSPECIFIED.,.F.,.F.,(4,4),(2.34953866923529E-7,0.00407278059172618),
 .UNSPECIFIED.);
#487=B_SPLINE_CURVE_WITH_KNOTS('',3,(#1254,#1255,#1256,#1257),
 .UNSPECIFIED.,.F.,.F.,(4,4),(0.00407278059172618,0.00810621245213699),
 .UNSPECIFIED.);
#488=B_SPLINE_CURVE_WITH_KNOTS('',3,(#1261,#1262,#1263,#1264),
 .UNSPECIFIED.,.F.,.F.,(4,4),(2.34953866923949E-7,0.00407278059172618),
 .UNSPECIFIED.);
#489=B_SPLINE_CURVE_WITH_KNOTS('',3,(#1266,#1267,#1268,#1269),
 .UNSPECIFIED.,.F.,.F.,(4,4),(0.00407278059172618,0.00810621245213699),
 .UNSPECIFIED.);
#490=B_SPLINE_CURVE_WITH_KNOTS('',3,(#1273,#1274,#1275,#1276),
 .UNSPECIFIED.,.F.,.F.,(4,4),(0.00887281575613116,0.0129776798334798),
 .UNSPECIFIED.);
#491=B_SPLINE_CURVE_WITH_KNOTS('',3,(#1278,#1279,#1280,#1281),
 .UNSPECIFIED.,.F.,.F.,(4,4),(0.0129776798334798,0.0170614701162668),
 .UNSPECIFIED.);
#492=B_SPLINE_CURVE_WITH_KNOTS('',3,(#1285,#1286,#1287,#1288),
 .UNSPECIFIED.,.F.,.F.,(4,4),(2.34953866923529E-7,0.00407278059172618),
 .UNSPECIFIED.);
#493=B_SPLINE_CURVE_WITH_KNOTS('',3,(#1303,#1304,#1305,#1306),
 .UNSPECIFIED.,.F.,.F.,(4,4),(2.34953866923843E-7,0.00407278059172618),
 .UNSPECIFIED.);
#494=B_SPLINE_CURVE_WITH_KNOTS('',3,(#1308,#1309,#1310,#1311),
 .UNSPECIFIED.,.F.,.F.,(4,4),(0.00407278059172618,0.00810621245213699),
 .UNSPECIFIED.);
#495=B_SPLINE_CURVE_WITH_KNOTS('',3,(#1313,#1314,#1315,#1316),
 .UNSPECIFIED.,.F.,.F.,(4,4),(0.00407278059172618,0.00810621245213699),
 .UNSPECIFIED.);
#496=B_SPLINE_CURVE_WITH_KNOTS('',3,(#1319,#1320,#1321,#1322),
 .UNSPECIFIED.,.F.,.F.,(4,4),(2.34953866923949E-7,0.00407278059172618),
 .UNSPECIFIED.);
#497=EDGE_LOOP('',(#109,#110,#111));
#498=EDGE_LOOP('',(#112,#113,#114));
#499=EDGE_LOOP('',(#115,#116,#117));
#500=EDGE_LOOP('',(#118,#119,#120));
#501=EDGE_LOOP('',(#121,#122,#123));
#502=EDGE_LOOP('',(#124,#125,#126,#127,#128,#129));
#503=EDGE_LOOP('',(#130));
#504=EDGE_LOOP('',(#131));
#505=EDGE_LOOP('',(#132));
#506=EDGE_LOOP('',(#133));
#507=EDGE_LOOP('',(#134));
#508=EDGE_LOOP('',(#135));
#509=EDGE_LOOP('',(#136,#137,#138));
#510=EDGE_LOOP('',(#139,#140,#141,#142,#143,#144));
#511=EDGE_LOOP('',(#145,#146,#147,#148,#149,#150));
#512=EDGE_LOOP('',(#151,#152,#153,#154,#155,#156));
#513=EDGE_LOOP('',(#157,#158,#159,#160,#161,#162));
#514=EDGE_LOOP('',(#163,#164,#165,#166,#167,#168));
#515=EDGE_LOOP('',(#169,#170,#171,#172,#173,#174));
#516=EDGE_LOOP('',(#175));
#517=EDGE_LOOP('',(#176));
#518=EDGE_LOOP('',(#177));
#519=EDGE_LOOP('',(#178));
#520=EDGE_LOOP('',(#179));
#521=EDGE_LOOP('',(#180,#181,#182));
#522=EDGE_LOOP('',(#183,#184,#185));
#523=EDGE_LOOP('',(#186,#187,#188));
#524=EDGE_LOOP('',(#189,#190,#191));
#525=EDGE_LOOP('',(#192,#193,#194));
#526=EDGE_LOOP('',(#195));
#527=EDGE_LOOP('',(#196,#197,#198,#199,#200,#201));
#528=EDGE_LOOP('',(#202,#203,#204));
#529=EDGE_LOOP('',(#205,#206,#207));
#530=EDGE_LOOP('',(#208,#209,#210));
#531=EDGE_LOOP('',(#211,#212,#213));
#532=EDGE_LOOP('',(#214,#215,#216));
#533=EDGE_LOOP('',(#217,#218,#219));
#534=EDGE_LOOP('',(#220,#221,#222));
#535=EDGE_LOOP('',(#223,#224,#225));
#536=EDGE_LOOP('',(#226,#227,#228));
#537=EDGE_LOOP('',(#229,#230,#231));
#538=EDGE_LOOP('',(#232,#233,#234));
#539=EDGE_LOOP('',(#235));
#540=EDGE_LOOP('',(#236));
#541=EDGE_LOOP('',(#237));
#542=EDGE_LOOP('',(#238));
#543=EDGE_LOOP('',(#239));
#544=EDGE_LOOP('',(#240));
#545=EDGE_LOOP('',(#241,#242,#243,#244,#245,#246));
#546=EDGE_LOOP('',(#247));
#547=EDGE_LOOP('',(#248,#249,#250));
#548=EDGE_LOOP('',(#251,#252,#253));
#549=EDGE_LOOP('',(#254));
#550=EDGE_LOOP('',(#255,#256,#257,#258,#259,#260));
#551=EDGE_LOOP('',(#261,#262,#263,#264,#265,#266));
#552=EDGE_LOOP('',(#267,#268,#269,#270,#271,#272));
#553=EDGE_LOOP('',(#273,#274,#275,#276,#277,#278));
#554=EDGE_LOOP('',(#279,#280,#281,#282,#283,#284));
#555=EDGE_LOOP('',(#285,#286,#287,#288,#289,#290));
#556=EDGE_LOOP('',(#291,#292,#293,#294,#295,#296));
#557=FACE_BOUND('',#497,.T.);
#558=FACE_BOUND('',#498,.T.);
#559=FACE_BOUND('',#499,.T.);
#560=FACE_BOUND('',#500,.T.);
#561=FACE_BOUND('',#501,.T.);
#562=FACE_BOUND('',#502,.T.);
#563=FACE_BOUND('',#503,.T.);
#564=FACE_BOUND('',#504,.T.);
#565=FACE_BOUND('',#505,.T.);
#566=FACE_BOUND('',#506,.T.);
#567=FACE_BOUND('',#507,.T.);
#568=FACE_BOUND('',#508,.T.);
#569=FACE_BOUND('',#509,.T.);
#570=FACE_BOUND('',#510,.T.);
#571=FACE_BOUND('',#511,.T.);
#572=FACE_BOUND('',#512,.T.);
#573=FACE_BOUND('',#513,.T.);
#574=FACE_BOUND('',#514,.T.);
#575=FACE_BOUND('',#515,.T.);
#576=FACE_BOUND('',#516,.T.);
#577=FACE_BOUND('',#517,.T.);
#578=FACE_BOUND('',#518,.T.);
#579=FACE_BOUND('',#519,.T.);
#580=FACE_BOUND('',#520,.T.);
#581=FACE_BOUND('',#521,.T.);
#582=FACE_BOUND('',#522,.T.);
#583=FACE_BOUND('',#523,.T.);
#584=FACE_BOUND('',#524,.T.);
#585=FACE_BOUND('',#525,.T.);
#586=FACE_BOUND('',#526,.T.);
#587=FACE_BOUND('',#527,.T.);
#588=FACE_BOUND('',#528,.T.);
#589=FACE_BOUND('',#529,.T.);
#590=FACE_BOUND('',#530,.T.);
#591=FACE_BOUND('',#531,.T.);
#592=FACE_BOUND('',#532,.T.);
#593=FACE_BOUND('',#533,.T.);
#594=FACE_BOUND('',#534,.T.);
#595=FACE_BOUND('',#535,.T.);
#596=FACE_BOUND('',#536,.T.);
#597=FACE_BOUND('',#537,.T.);
#598=FACE_BOUND('',#538,.T.);
#599=FACE_BOUND('',#539,.T.);
#600=FACE_BOUND('',#540,.T.);
#601=FACE_BOUND('',#541,.T.);
#602=FACE_BOUND('',#542,.T.);
#603=FACE_BOUND('',#543,.T.);
#604=FACE_BOUND('',#544,.T.);
#605=FACE_BOUND('',#545,.T.);
#606=FACE_BOUND('',#546,.T.);
#607=FACE_BOUND('',#547,.T.);
#608=FACE_BOUND('',#548,.T.);
#609=FACE_BOUND('',#549,.T.);
#610=FACE_BOUND('',#550,.T.);
#611=FACE_BOUND('',#551,.T.);
#612=FACE_BOUND('',#552,.T.);
#613=FACE_BOUND('',#553,.T.);
#614=FACE_BOUND('',#554,.T.);
#615=FACE_BOUND('',#555,.T.);
#616=FACE_BOUND('',#556,.T.);
#617=CONICAL_SURFACE('',#720,11.,1.10714871779409);
#618=CONICAL_SURFACE('',#722,11.,1.10714871779409);
#619=CONICAL_SURFACE('',#724,11.,1.10714871779409);
#620=CONICAL_SURFACE('',#726,11.,1.10714871779409);
#621=CONICAL_SURFACE('',#728,11.,1.10714871779409);
#622=CONICAL_SURFACE('',#733,10.,0.927295218001612);
#623=CONICAL_SURFACE('',#738,11.,1.10714871779409);
#624=CONICAL_SURFACE('',#747,3.,0.785398163397448);
#625=CONICAL_SURFACE('',#751,6.99999999999999,1.10714871779409);
#626=CONICAL_SURFACE('',#753,6.99999999999999,1.10714871779409);
#627=CONICAL_SURFACE('',#755,6.99999999999999,1.10714871779409);
#628=CONICAL_SURFACE('',#757,6.99999999999999,1.10714871779409);
#629=CONICAL_SURFACE('',#759,6.99999999999999,1.10714871779409);
#630=CONICAL_SURFACE('',#763,6.99999999999999,1.10714871779409);
#631=CONICAL_SURFACE('',#765,6.99999999999999,1.10714871779409);
#632=CONICAL_SURFACE('',#767,6.99999999999999,1.10714871779409);
#633=CONICAL_SURFACE('',#769,6.99999999999999,1.10714871779409);
#634=CONICAL_SURFACE('',#771,6.99999999999999,1.10714871779409);
#635=CONICAL_SURFACE('',#773,6.99999999999999,1.10714871779409);
#636=CONICAL_SURFACE('',#775,11.,1.10714871779409);
#637=CONICAL_SURFACE('',#777,11.,1.10714871779409);
#638=CONICAL_SURFACE('',#779,11.,1.10714871779409);
#639=CONICAL_SURFACE('',#781,11.,1.10714871779409);
#640=CONICAL_SURFACE('',#783,11.,1.10714871779409);
#641=CONICAL_SURFACE('',#785,4.,0.785398163397451);
#642=CONICAL_SURFACE('',#790,3.3235,0.785398163397451);
#643=CONICAL_SURFACE('',#794,6.99999999999999,1.10714871779409);
#644=CONICAL_SURFACE('',#795,11.,1.10714871779409);
#645=ADVANCED_FACE('',(#557),#617,.T.);
#646=ADVANCED_FACE('',(#558),#618,.T.);
#647=ADVANCED_FACE('',(#559),#619,.T.);
#648=ADVANCED_FACE('',(#560),#620,.T.);
#649=ADVANCED_FACE('',(#561),#621,.T.);
#650=ADVANCED_FACE('',(#562,#563),#57,.F.);
#651=ADVANCED_FACE('',(#564,#565),#622,.T.);
#652=ADVANCED_FACE('',(#566,#567),#54,.T.);
#653=ADVANCED_FACE('',(#568),#58,.F.);
#654=ADVANCED_FACE('',(#569),#623,.T.);
#655=ADVANCED_FACE('',(#570),#59,.F.);
#656=ADVANCED_FACE('',(#571),#60,.F.);
#657=ADVANCED_FACE('',(#572),#61,.F.);
#658=ADVANCED_FACE('',(#573),#62,.F.);
#659=ADVANCED_FACE('',(#574),#63,.F.);
#660=ADVANCED_FACE('',(#575),#64,.F.);
#661=ADVANCED_FACE('',(#576),#65,.F.);
#662=ADVANCED_FACE('',(#577,#578),#624,.T.);
#663=ADVANCED_FACE('',(#579,#580),#55,.T.);
#664=ADVANCED_FACE('',(#581),#625,.T.);
#665=ADVANCED_FACE('',(#582),#626,.T.);
#666=ADVANCED_FACE('',(#583),#627,.T.);
#667=ADVANCED_FACE('',(#584),#628,.T.);
#668=ADVANCED_FACE('',(#585),#629,.T.);
#669=ADVANCED_FACE('',(#586,#587),#66,.F.);
#670=ADVANCED_FACE('',(#588),#630,.T.);
#671=ADVANCED_FACE('',(#589),#631,.T.);
#672=ADVANCED_FACE('',(#590),#632,.T.);
#673=ADVANCED_FACE('',(#591),#633,.T.);
#674=ADVANCED_FACE('',(#592),#634,.T.);
#675=ADVANCED_FACE('',(#593),#635,.T.);
#676=ADVANCED_FACE('',(#594),#636,.T.);
#677=ADVANCED_FACE('',(#595),#637,.T.);
#678=ADVANCED_FACE('',(#596),#638,.T.);
#679=ADVANCED_FACE('',(#597),#639,.T.);
#680=ADVANCED_FACE('',(#598),#640,.T.);
#681=ADVANCED_FACE('',(#599,#600),#641,.F.);
#682=ADVANCED_FACE('',(#601,#602),#56,.F.);
#683=ADVANCED_FACE('',(#603,#604),#642,.F.);
#684=ADVANCED_FACE('',(#605,#606),#67,.T.);
#685=ADVANCED_FACE('',(#607),#643,.T.);
#686=ADVANCED_FACE('',(#608),#644,.T.);
#687=ADVANCED_FACE('',(#609,#610),#68,.T.);
#688=ADVANCED_FACE('',(#611),#69,.F.);
#689=ADVANCED_FACE('',(#612),#70,.F.);
#690=ADVANCED_FACE('',(#613),#71,.F.);
#691=ADVANCED_FACE('',(#614),#72,.F.);
#692=ADVANCED_FACE('',(#615),#73,.F.);
#693=ADVANCED_FACE('',(#616),#74,.F.);
#694=CLOSED_SHELL('',(#645,#646,#647,#648,#649,#650,#651,#652,#653,#654,
#655,#656,#657,#658,#659,#660,#661,#662,#663,#664,#665,#666,#667,#668,#669,
#670));
#695=CLOSED_SHELL('',(#671,#672,#673,#674,#675,#676,#677,#678,#679,#680,
#681,#682,#683,#684,#685,#686,#687,#688,#689,#690,#691,#692,#693));
#696=STYLED_ITEM('',(#698),#711);
#697=STYLED_ITEM('',(#699),#712);
#698=PRESENTATION_STYLE_ASSIGNMENT((#700));
#699=PRESENTATION_STYLE_ASSIGNMENT((#701));
#700=SURFACE_STYLE_USAGE(.BOTH.,#702);
#701=SURFACE_STYLE_USAGE(.BOTH.,#703);
#702=SURFACE_SIDE_STYLE('',(#704));
#703=SURFACE_SIDE_STYLE('',(#705));
#704=SURFACE_STYLE_FILL_AREA(#706);
#705=SURFACE_STYLE_FILL_AREA(#707);
#706=FILL_AREA_STYLE('',(#708));
#707=FILL_AREA_STYLE('',(#709));
#708=FILL_AREA_STYLE_COLOUR('',#710);
#709=FILL_AREA_STYLE_COLOUR('',#710);
#710=COLOUR_RGB('',0.5,0.5,0.490000009536743);
#711=MANIFOLD_SOLID_BREP('WAD36-D40-M8-L50-001',#694);
#712=MANIFOLD_SOLID_BREP('WAD36-D40-M8-L50-002',#695);
#713=SHAPE_DEFINITION_REPRESENTATION(#1347,#716);
#714=SHAPE_DEFINITION_REPRESENTATION(#1348,#717);
#715=SHAPE_DEFINITION_REPRESENTATION(#1350,#718);
#716=SHAPE_REPRESENTATION('WAD36-D40-M8-L50',(#719,#764,#804),#1338);
#717=SHAPE_REPRESENTATION('WAD36-D40-M8-L50-001',(#719),#1339);
#718=SHAPE_REPRESENTATION('WAD36-D40-M8-L50-002',(#719),#1340);
#719=AXIS2_PLACEMENT_3D('',#989,#805,#806);
#720=AXIS2_PLACEMENT_3D('',#990,#807,#808);
#721=AXIS2_PLACEMENT_3D('',#1002,#809,#810);
#722=AXIS2_PLACEMENT_3D('',#1003,#811,#812);
#723=AXIS2_PLACEMENT_3D('',#1004,#813,#814);
#724=AXIS2_PLACEMENT_3D('',#1015,#815,#816);
#725=AXIS2_PLACEMENT_3D('',#1016,#817,#818);
#726=AXIS2_PLACEMENT_3D('',#1027,#819,#820);
#727=AXIS2_PLACEMENT_3D('',#1028,#821,#822);
#728=AXIS2_PLACEMENT_3D('',#1039,#823,#824);
#729=AXIS2_PLACEMENT_3D('',#1040,#825,#826);
#730=AXIS2_PLACEMENT_3D('',#1051,#827,#828);
#731=AXIS2_PLACEMENT_3D('',#1052,#829,#830);
#732=AXIS2_PLACEMENT_3D('',#1053,#831,#832);
#733=AXIS2_PLACEMENT_3D('',#1055,#833,#834);
#734=AXIS2_PLACEMENT_3D('',#1056,#835,#836);
#735=AXIS2_PLACEMENT_3D('',#1058,#837,#838);
#736=AXIS2_PLACEMENT_3D('',#1059,#839,#840);
#737=AXIS2_PLACEMENT_3D('',#1061,#841,#842);
#738=AXIS2_PLACEMENT_3D('',#1062,#843,#844);
#739=AXIS2_PLACEMENT_3D('',#1072,#845,#846);
#740=AXIS2_PLACEMENT_3D('',#1086,#849,#850);
#741=AXIS2_PLACEMENT_3D('',#1098,#852,#853);
#742=AXIS2_PLACEMENT_3D('',#1110,#855,#856);
#743=AXIS2_PLACEMENT_3D('',#1122,#858,#859);
#744=AXIS2_PLACEMENT_3D('',#1134,#861,#862);
#745=AXIS2_PLACEMENT_3D('',#1144,#863,#864);
#746=AXIS2_PLACEMENT_3D('',#1145,#865,#866);
#747=AXIS2_PLACEMENT_3D('',#1147,#867,#868);
#748=AXIS2_PLACEMENT_3D('',#1148,#869,#870);
#749=AXIS2_PLACEMENT_3D('',#1150,#871,#872);
#750=AXIS2_PLACEMENT_3D('',#1151,#873,#874);
#751=AXIS2_PLACEMENT_3D('',#1153,#875,#876);
#752=AXIS2_PLACEMENT_3D('',#1154,#877,#878);
#753=AXIS2_PLACEMENT_3D('',#1155,#879,#880);
#754=AXIS2_PLACEMENT_3D('',#1156,#881,#882);
#755=AXIS2_PLACEMENT_3D('',#1157,#883,#884);
#756=AXIS2_PLACEMENT_3D('',#1158,#885,#886);
#757=AXIS2_PLACEMENT_3D('',#1159,#887,#888);
#758=AXIS2_PLACEMENT_3D('',#1160,#889,#890);
#759=AXIS2_PLACEMENT_3D('',#1161,#891,#892);
#760=AXIS2_PLACEMENT_3D('',#1162,#893,#894);
#761=AXIS2_PLACEMENT_3D('',#1163,#895,#896);
#762=AXIS2_PLACEMENT_3D('',#1164,#897,#898);
#763=AXIS2_PLACEMENT_3D('',#1165,#899,#900);
#764=AXIS2_PLACEMENT_3D('',#1166,#901,#902);
#765=AXIS2_PLACEMENT_3D('',#1167,#903,#904);
#766=AXIS2_PLACEMENT_3D('',#1179,#905,#906);
#767=AXIS2_PLACEMENT_3D('',#1180,#907,#908);
#768=AXIS2_PLACEMENT_3D('',#1186,#909,#910);
#769=AXIS2_PLACEMENT_3D('',#1192,#911,#912);
#770=AXIS2_PLACEMENT_3D('',#1198,#913,#914);
#771=AXIS2_PLACEMENT_3D('',#1204,#915,#916);
#772=AXIS2_PLACEMENT_3D('',#1215,#917,#918);
#773=AXIS2_PLACEMENT_3D('',#1216,#919,#920);
#774=AXIS2_PLACEMENT_3D('',#1222,#921,#922);
#775=AXIS2_PLACEMENT_3D('',#1228,#923,#924);
#776=AXIS2_PLACEMENT_3D('',#1240,#925,#926);
#777=AXIS2_PLACEMENT_3D('',#1241,#927,#928);
#778=AXIS2_PLACEMENT_3D('',#1247,#929,#930);
#779=AXIS2_PLACEMENT_3D('',#1253,#931,#932);
#780=AXIS2_PLACEMENT_3D('',#1259,#933,#934);
#781=AXIS2_PLACEMENT_3D('',#1265,#935,#936);
#782=AXIS2_PLACEMENT_3D('',#1271,#937,#938);
#783=AXIS2_PLACEMENT_3D('',#1277,#939,#940);
#784=AXIS2_PLACEMENT_3D('',#1283,#941,#942);
#785=AXIS2_PLACEMENT_3D('',#1289,#943,#944);
#786=AXIS2_PLACEMENT_3D('',#1290,#945,#946);
#787=AXIS2_PLACEMENT_3D('',#1292,#947,#948);
#788=AXIS2_PLACEMENT_3D('',#1294,#949,#950);
#789=AXIS2_PLACEMENT_3D('',#1295,#951,#952);
#790=AXIS2_PLACEMENT_3D('',#1297,#953,#954);
#791=AXIS2_PLACEMENT_3D('',#1298,#955,#956);
#792=AXIS2_PLACEMENT_3D('',#1300,#957,#958);
#793=AXIS2_PLACEMENT_3D('',#1301,#959,#960);
#794=AXIS2_PLACEMENT_3D('',#1302,#961,#962);
#795=AXIS2_PLACEMENT_3D('',#1312,#963,#964);
#796=AXIS2_PLACEMENT_3D('',#1318,#965,#966);
#797=AXIS2_PLACEMENT_3D('',#1323,#967,#968);
#798=AXIS2_PLACEMENT_3D('',#1324,#969,#970);
#799=AXIS2_PLACEMENT_3D('',#1327,#973,#974);
#800=AXIS2_PLACEMENT_3D('',#1329,#976,#977);
#801=AXIS2_PLACEMENT_3D('',#1331,#979,#980);
#802=AXIS2_PLACEMENT_3D('',#1333,#982,#983);
#803=AXIS2_PLACEMENT_3D('',#1335,#985,#986);
#804=AXIS2_PLACEMENT_3D('',#1336,#987,#988);
#805=DIRECTION('',(0.,0.,1.));
#806=DIRECTION('',(1.,0.,0.));
#807=DIRECTION('',(0.,1.,0.));
#808=DIRECTION('',(0.,0.,1.));
#809=DIRECTION('',(0.,-1.,0.));
#810=DIRECTION('',(0.,0.,-1.));
#811=DIRECTION('',(0.,1.,0.));
#812=DIRECTION('',(0.,0.,1.));
#813=DIRECTION('',(0.,-1.,0.));
#814=DIRECTION('',(0.,0.,-1.));
#815=DIRECTION('',(0.,1.,0.));
#816=DIRECTION('',(0.,0.,1.));
#817=DIRECTION('',(0.,-1.,0.));
#818=DIRECTION('',(0.,0.,-1.));
#819=DIRECTION('',(0.,1.,0.));
#820=DIRECTION('',(0.,0.,1.));
#821=DIRECTION('',(0.,-1.,0.));
#822=DIRECTION('',(0.,0.,-1.));
#823=DIRECTION('',(0.,1.,0.));
#824=DIRECTION('',(0.,0.,1.));
#825=DIRECTION('',(0.,-1.,0.));
#826=DIRECTION('',(0.,0.,-1.));
#827=DIRECTION('',(0.,-1.,0.));
#828=DIRECTION('',(0.,0.,-1.));
#829=DIRECTION('',(0.,-1.,0.));
#830=DIRECTION('',(0.,0.,-1.));
#831=DIRECTION('',(0.,-1.,0.));
#832=DIRECTION('',(0.,0.,-1.));
#833=DIRECTION('',(0.,-1.,0.));
#834=DIRECTION('',(0.,0.,-1.));
#835=DIRECTION('',(0.,-1.,0.));
#836=DIRECTION('',(0.,0.,-1.));
#837=DIRECTION('',(0.,-1.,0.));
#838=DIRECTION('',(0.,0.,-1.));
#839=DIRECTION('',(0.,-1.,0.));
#840=DIRECTION('',(0.,0.,-1.));
#841=DIRECTION('',(0.,1.,0.));
#842=DIRECTION('',(0.,0.,1.));
#843=DIRECTION('',(0.,1.,0.));
#844=DIRECTION('',(0.,0.,1.));
#845=DIRECTION('',(1.,0.,0.));
#846=DIRECTION('',(0.,0.,-1.));
#847=DIRECTION('',(0.,-1.,0.));
#848=DIRECTION('',(0.,-1.,0.));
#849=DIRECTION('',(0.5,0.,0.866025403784439));
#850=DIRECTION('',(0.866025403784439,0.,-0.5));
#851=DIRECTION('',(0.,-1.,0.));
#852=DIRECTION('',(-0.5,0.,0.866025403784439));
#853=DIRECTION('',(0.866025403784439,0.,0.5));
#854=DIRECTION('',(0.,-1.,0.));
#855=DIRECTION('',(-1.,0.,0.));
#856=DIRECTION('',(0.,0.,1.));
#857=DIRECTION('',(0.,-1.,0.));
#858=DIRECTION('',(-0.5,0.,-0.866025403784439));
#859=DIRECTION('',(-0.866025403784439,0.,0.5));
#860=DIRECTION('',(0.,-1.,0.));
#861=DIRECTION('',(0.5,0.,-0.866025403784439));
#862=DIRECTION('',(-0.866025403784439,0.,-0.5));
#863=DIRECTION('',(0.,-1.,0.));
#864=DIRECTION('',(0.,0.,-1.));
#865=DIRECTION('',(0.,-1.,0.));
#866=DIRECTION('',(0.,0.,-1.));
#867=DIRECTION('',(0.,-1.,0.));
#868=DIRECTION('',(0.,0.,-1.));
#869=DIRECTION('',(0.,-1.,0.));
#870=DIRECTION('',(0.,0.,-1.));
#871=DIRECTION('',(0.,-1.,0.));
#872=DIRECTION('',(0.,0.,-1.));
#873=DIRECTION('',(0.,-1.,0.));
#874=DIRECTION('',(0.,0.,-1.));
#875=DIRECTION('',(0.,-1.,0.));
#876=DIRECTION('',(0.,0.,-1.));
#877=DIRECTION('',(0.,-1.,0.));
#878=DIRECTION('',(0.,0.,-1.));
#879=DIRECTION('',(0.,-1.,0.));
#880=DIRECTION('',(0.,0.,-1.));
#881=DIRECTION('',(0.,-1.,0.));
#882=DIRECTION('',(0.,0.,-1.));
#883=DIRECTION('',(0.,-1.,0.));
#884=DIRECTION('',(0.,0.,-1.));
#885=DIRECTION('',(0.,-1.,0.));
#886=DIRECTION('',(0.,0.,-1.));
#887=DIRECTION('',(0.,-1.,0.));
#888=DIRECTION('',(0.,0.,-1.));
#889=DIRECTION('',(0.,-1.,0.));
#890=DIRECTION('',(0.,0.,-1.));
#891=DIRECTION('',(0.,-1.,0.));
#892=DIRECTION('',(0.,0.,-1.));
#893=DIRECTION('',(0.,-1.,0.));
#894=DIRECTION('',(0.,0.,-1.));
#895=DIRECTION('',(0.,-1.,0.));
#896=DIRECTION('',(0.,0.,-1.));
#897=DIRECTION('',(0.,-1.,0.));
#898=DIRECTION('',(0.,0.,-1.));
#899=DIRECTION('',(0.,-1.,0.));
#900=DIRECTION('',(0.,0.,-1.));
#901=DIRECTION('',(0.,0.,1.));
#902=DIRECTION('',(1.,0.,0.));
#903=DIRECTION('',(0.,1.,0.));
#904=DIRECTION('',(0.,0.,1.));
#905=DIRECTION('',(0.,-1.,0.));
#906=DIRECTION('',(0.,0.,-1.));
#907=DIRECTION('',(0.,1.,0.));
#908=DIRECTION('',(0.,0.,1.));
#909=DIRECTION('',(0.,-1.,0.));
#910=DIRECTION('',(0.,0.,-1.));
#911=DIRECTION('',(0.,1.,0.));
#912=DIRECTION('',(0.,0.,1.));
#913=DIRECTION('',(0.,-1.,0.));
#914=DIRECTION('',(0.,0.,-1.));
#915=DIRECTION('',(0.,1.,0.));
#916=DIRECTION('',(0.,0.,1.));
#917=DIRECTION('',(0.,-1.,0.));
#918=DIRECTION('',(0.,0.,-1.));
#919=DIRECTION('',(0.,1.,0.));
#920=DIRECTION('',(0.,0.,1.));
#921=DIRECTION('',(0.,-1.,0.));
#922=DIRECTION('',(0.,0.,-1.));
#923=DIRECTION('',(0.,-1.,0.));
#924=DIRECTION('',(0.,0.,-1.));
#925=DIRECTION('',(0.,-1.,0.));
#926=DIRECTION('',(0.,0.,-1.));
#927=DIRECTION('',(0.,-1.,0.));
#928=DIRECTION('',(0.,0.,-1.));
#929=DIRECTION('',(0.,-1.,0.));
#930=DIRECTION('',(0.,0.,-1.));
#931=DIRECTION('',(0.,-1.,0.));
#932=DIRECTION('',(0.,0.,-1.));
#933=DIRECTION('',(0.,-1.,0.));
#934=DIRECTION('',(0.,0.,-1.));
#935=DIRECTION('',(0.,-1.,0.));
#936=DIRECTION('',(0.,0.,-1.));
#937=DIRECTION('',(0.,-1.,0.));
#938=DIRECTION('',(0.,0.,-1.));
#939=DIRECTION('',(0.,-1.,0.));
#940=DIRECTION('',(0.,0.,-1.));
#941=DIRECTION('',(0.,-1.,0.));
#942=DIRECTION('',(0.,0.,-1.));
#943=DIRECTION('',(0.,1.,0.));
#944=DIRECTION('',(0.,0.,1.));
#945=DIRECTION('',(0.,-1.,0.));
#946=DIRECTION('',(0.,0.,-1.));
#947=DIRECTION('',(0.,-1.,0.));
#948=DIRECTION('',(0.,0.,-1.));
#949=DIRECTION('',(0.,-1.,0.));
#950=DIRECTION('',(0.,0.,-1.));
#951=DIRECTION('',(0.,-1.,0.));
#952=DIRECTION('',(0.,0.,-1.));
#953=DIRECTION('',(0.,-1.,0.));
#954=DIRECTION('',(0.,0.,-1.));
#955=DIRECTION('',(0.,-1.,0.));
#956=DIRECTION('',(0.,0.,-1.));
#957=DIRECTION('',(0.,-1.,0.));
#958=DIRECTION('',(0.,0.,-1.));
#959=DIRECTION('',(0.,-1.,0.));
#960=DIRECTION('',(0.,0.,-1.));
#961=DIRECTION('',(0.,1.,0.));
#962=DIRECTION('',(0.,0.,1.));
#963=DIRECTION('',(0.,-1.,0.));
#964=DIRECTION('',(0.,0.,-1.));
#965=DIRECTION('',(0.,-1.,0.));
#966=DIRECTION('',(0.,0.,-1.));
#967=DIRECTION('',(0.,1.,0.));
#968=DIRECTION('',(0.,0.,1.));
#969=DIRECTION('',(1.,0.,0.));
#970=DIRECTION('',(0.,0.,-1.));
#971=DIRECTION('',(0.,-1.,0.));
#972=DIRECTION('',(0.,-1.,0.));
#973=DIRECTION('',(0.5,0.,0.866025403784439));
#974=DIRECTION('',(0.866025403784439,0.,-0.5));
#975=DIRECTION('',(0.,-1.,0.));
#976=DIRECTION('',(-0.5,0.,0.866025403784439));
#977=DIRECTION('',(0.866025403784439,0.,0.5));
#978=DIRECTION('',(0.,-1.,0.));
#979=DIRECTION('',(-1.,0.,0.));
#980=DIRECTION('',(0.,0.,1.));
#981=DIRECTION('',(0.,-1.,0.));
#982=DIRECTION('',(-0.5,0.,-0.866025403784439));
#983=DIRECTION('',(-0.866025403784439,0.,0.5));
#984=DIRECTION('',(0.,-1.,0.));
#985=DIRECTION('',(0.5,0.,-0.866025403784439));
#986=DIRECTION('',(-0.866025403784439,0.,-0.5));
#987=DIRECTION('',(0.,0.,1.));
#988=DIRECTION('',(1.,0.,0.));
#989=CARTESIAN_POINT('',(0.,0.,0.));
#990=CARTESIAN_POINT('',(0.,17.,-7.105427357601E-15));
#991=CARTESIAN_POINT('',(-3.5,15.,6.06217782649107));
#992=CARTESIAN_POINT('',(-4.66843005569495,15.,5.38758441930634));
#993=CARTESIAN_POINT('',(-5.8511735333375,15.2098142494375,4.70472715410714));
#994=CARTESIAN_POINT('',(-7.,15.5414518843274,4.04145188432738));
#995=CARTESIAN_POINT('',(-3.5,15.,6.06217782649107));
#996=CARTESIAN_POINT('',(-7.,15.5414518843274,4.04145188432738));
#997=CARTESIAN_POINT('',(-7.,15.5414518843274,4.04145188432738));
#998=CARTESIAN_POINT('',(-7.,15.2077626206781,2.70669482973028));
#999=CARTESIAN_POINT('',(-7.,15.,1.35722771388241));
#1000=CARTESIAN_POINT('',(-7.,15.,-5.33118890937402E-15));
#1001=CARTESIAN_POINT('',(-7.,15.,-7.105427357601E-15));
#1002=CARTESIAN_POINT('',(0.,15.,-7.105427357601E-15));
#1003=CARTESIAN_POINT('',(0.,17.,-7.105427357601E-15));
#1004=CARTESIAN_POINT('',(0.,15.,-7.105427357601E-15));
#1005=CARTESIAN_POINT('',(-3.5,15.,-6.06217782649107));
#1006=CARTESIAN_POINT('',(-7.,15.,-7.06574422428508E-15));
#1007=CARTESIAN_POINT('',(-7.,15.,-1.35025989778017));
#1008=CARTESIAN_POINT('',(-7.,15.212202455735,-2.72445416995786));
#1009=CARTESIAN_POINT('',(-7.,15.5414518843274,-4.04145188432738));
#1010=CARTESIAN_POINT('',(-7.,15.5414518843274,-4.04145188432738));
#1011=CARTESIAN_POINT('',(-7.,15.5414518843274,-4.04145188432738));
#1012=CARTESIAN_POINT('',(-5.84444054731136,15.2078706037902,-4.70861444540179));
#1013=CARTESIAN_POINT('',(-4.67976078216912,15.,-5.38104262132637));
#1014=CARTESIAN_POINT('',(-3.5,15.,-6.06217782649107));
#1015=CARTESIAN_POINT('',(0.,17.,-7.105427357601E-15));
#1016=CARTESIAN_POINT('',(0.,15.,-7.105427357601E-15));
#1017=CARTESIAN_POINT('',(3.5,15.,-6.06217782649107));
#1018=CARTESIAN_POINT('',(-3.5,15.,-6.06217782649107));
#1019=CARTESIAN_POINT('',(-2.33156994430504,15.,-6.7367712336758));
#1020=CARTESIAN_POINT('',(-1.14882646666249,15.2098142494375,-7.41962849887501));
#1021=CARTESIAN_POINT('',(5.0381761653015E-15,15.5414518843274,-8.08290376865476));
#1022=CARTESIAN_POINT('',(0.,15.5414518843274,-8.08290376865476));
#1023=CARTESIAN_POINT('',(-2.89938248327876E-16,15.5414518843274,-8.08290376865476));
#1024=CARTESIAN_POINT('',(1.15555945268864,15.2078706037902,-7.41574120758036));
#1025=CARTESIAN_POINT('',(2.32023921783088,15.,-6.74331303165578));
#1026=CARTESIAN_POINT('',(3.5,15.,-6.06217782649107));
#1027=CARTESIAN_POINT('',(0.,17.,-7.105427357601E-15));
#1028=CARTESIAN_POINT('',(0.,15.,-7.105427357601E-15));
#1029=CARTESIAN_POINT('',(7.,15.,-7.105427357601E-15));
#1030=CARTESIAN_POINT('',(3.5,15.,-6.06217782649107));
#1031=CARTESIAN_POINT('',(4.66843005569495,15.,-5.38758441930634));
#1032=CARTESIAN_POINT('',(5.85117353333751,15.2098142494375,-4.70472715410714));
#1033=CARTESIAN_POINT('',(7.00000000000001,15.5414518843274,-4.04145188432738));
#1034=CARTESIAN_POINT('',(7.,15.5414518843274,-4.04145188432738));
#1035=CARTESIAN_POINT('',(7.,15.5414518843274,-4.04145188432738));
#1036=CARTESIAN_POINT('',(7.,15.2077626206781,-2.70669482973028));
#1037=CARTESIAN_POINT('',(7.,15.,-1.35722771388242));
#1038=CARTESIAN_POINT('',(7.,15.,-5.96340259716556E-15));
#1039=CARTESIAN_POINT('',(0.,17.,-7.105427357601E-15));
#1040=CARTESIAN_POINT('',(0.,15.,-7.105427357601E-15));
#1041=CARTESIAN_POINT('',(3.5,15.,6.06217782649107));
#1042=CARTESIAN_POINT('',(7.,15.,-5.96340259716556E-15));
#1043=CARTESIAN_POINT('',(7.,15.,1.35025989778016));
#1044=CARTESIAN_POINT('',(7.,15.212202455735,2.72445416995786));
#1045=CARTESIAN_POINT('',(7.,15.5414518843274,4.04145188432738));
#1046=CARTESIAN_POINT('',(7.,15.5414518843274,4.04145188432738));
#1047=CARTESIAN_POINT('',(7.,15.5414518843274,4.04145188432738));
#1048=CARTESIAN_POINT('',(5.84444054731136,15.2078706037902,4.70861444540178));
#1049=CARTESIAN_POINT('',(4.67976078216913,15.,5.38104262132636));
#1050=CARTESIAN_POINT('',(3.5,15.,6.06217782649107));
#1051=CARTESIAN_POINT('',(0.,15.,-4.));
#1052=CARTESIAN_POINT('',(0.,15.,-7.105427357601E-15));
#1053=CARTESIAN_POINT('',(0.,15.,0.));
#1054=CARTESIAN_POINT('',(0.,15.,-10.));
#1055=CARTESIAN_POINT('',(0.,15.,0.));
#1056=CARTESIAN_POINT('',(0.,7.49999999999999,0.));
#1057=CARTESIAN_POINT('',(0.,7.49999999999999,-20.));
#1058=CARTESIAN_POINT('',(0.,0.,0.));
#1059=CARTESIAN_POINT('',(0.,0.,0.));
#1060=CARTESIAN_POINT('',(0.,0.,-20.));
#1061=CARTESIAN_POINT('',(0.,0.,-20.));
#1062=CARTESIAN_POINT('',(0.,17.,-7.105427357601E-15));
#1063=CARTESIAN_POINT('',(3.5,15.,6.06217782649107));
#1064=CARTESIAN_POINT('',(2.33156994430505,15.,6.7367712336758));
#1065=CARTESIAN_POINT('',(1.14882646666249,15.2098142494375,7.419628498875));
#1066=CARTESIAN_POINT('',(-5.03817595850634E-15,15.5414518843274,8.08290376865476));
#1067=CARTESIAN_POINT('',(0.,15.5414518843274,8.08290376865476));
#1068=CARTESIAN_POINT('',(2.90767599686366E-16,15.5414518843274,8.08290376865476));
#1069=CARTESIAN_POINT('',(-1.15555945268864,15.2078706037902,7.41574120758036));
#1070=CARTESIAN_POINT('',(-2.32023921783088,15.,6.74331303165578));
#1071=CARTESIAN_POINT('',(-3.5,15.,6.06217782649107));
#1072=CARTESIAN_POINT('',(-7.,22.,-4.04145188432738));
#1073=CARTESIAN_POINT('',(-7.,22.,-4.04145188432738));
#1074=CARTESIAN_POINT('',(-7.,20.4585481156726,-4.04145188432738));
#1075=CARTESIAN_POINT('',(-7.,22.,4.04145188432738));
#1076=CARTESIAN_POINT('',(-7.,20.4585481156726,4.04145188432738));
#1077=CARTESIAN_POINT('',(-7.,21.,-6.64491069900999E-15));
#1078=CARTESIAN_POINT('',(-7.,21.,1.35025989778016));
#1079=CARTESIAN_POINT('',(-7.,20.787797544265,2.72445416995786));
#1080=CARTESIAN_POINT('',(-7.,20.4585481156726,4.04145188432738));
#1081=CARTESIAN_POINT('',(-7.,21.,-7.10546533155613E-15));
#1082=CARTESIAN_POINT('',(-7.,20.4585481156726,-4.04145188432738));
#1083=CARTESIAN_POINT('',(-7.,20.7922373793219,-2.70669482973028));
#1084=CARTESIAN_POINT('',(-7.,21.,-1.35722771388242));
#1085=CARTESIAN_POINT('',(-7.,21.,-6.64491069900999E-15));
#1086=CARTESIAN_POINT('',(0.,22.,-8.08290376865476));
#1087=CARTESIAN_POINT('',(0.,22.,-8.08290376865476));
#1088=CARTESIAN_POINT('',(0.,20.4585481156726,-8.08290376865476));
#1089=CARTESIAN_POINT('',(-3.5,21.,-6.06217782649107));
#1090=CARTESIAN_POINT('',(-4.66843005569495,21.,-5.38758441930634));
#1091=CARTESIAN_POINT('',(-5.85117353333751,20.7901857505625,-4.70472715410714));
#1092=CARTESIAN_POINT('',(-7.00000000000001,20.4585481156726,-4.04145188432738));
#1093=CARTESIAN_POINT('',(-3.5,21.,-6.06217782649107));
#1094=CARTESIAN_POINT('',(2.86462244454768E-16,20.4585481156726,-8.08290376865476));
#1095=CARTESIAN_POINT('',(-1.15555945268864,20.7921293962098,-7.41574120758036));
#1096=CARTESIAN_POINT('',(-2.32023921783087,21.,-6.74331303165578));
#1097=CARTESIAN_POINT('',(-3.5,21.,-6.06217782649107));
#1098=CARTESIAN_POINT('',(7.,22.,-4.04145188432738));
#1099=CARTESIAN_POINT('',(7.,22.,-4.04145188432738));
#1100=CARTESIAN_POINT('',(7.,20.4585481156726,-4.04145188432738));
#1101=CARTESIAN_POINT('',(3.5,21.,-6.06217782649107));
#1102=CARTESIAN_POINT('',(2.33156994430505,21.,-6.7367712336758));
#1103=CARTESIAN_POINT('',(1.14882646666249,20.7901857505625,-7.419628498875));
#1104=CARTESIAN_POINT('',(-3.06140258149154E-15,20.4585481156726,-8.08290376865476));
#1105=CARTESIAN_POINT('',(3.5,21.,-6.06217782649107));
#1106=CARTESIAN_POINT('',(7.,20.4585481156726,-4.04145188432738));
#1107=CARTESIAN_POINT('',(5.84444054731136,20.7921293962098,-4.70861444540178));
#1108=CARTESIAN_POINT('',(4.67976078216912,21.,-5.38104262132636));
#1109=CARTESIAN_POINT('',(3.5,21.,-6.06217782649107));
#1110=CARTESIAN_POINT('',(7.,22.,4.04145188432738));
#1111=CARTESIAN_POINT('',(7.,22.,4.04145188432738));
#1112=CARTESIAN_POINT('',(7.,20.4585481156726,4.04145188432738));
#1113=CARTESIAN_POINT('',(7.,21.,-6.37738375824477E-15));
#1114=CARTESIAN_POINT('',(7.,21.,-1.35025989778017));
#1115=CARTESIAN_POINT('',(7.,20.787797544265,-2.72445416995786));
#1116=CARTESIAN_POINT('',(7.,20.4585481156726,-4.04145188432738));
#1117=CARTESIAN_POINT('',(7.,21.,-7.10538938361276E-15));
#1118=CARTESIAN_POINT('',(7.,20.4585481156726,4.04145188432738));
#1119=CARTESIAN_POINT('',(7.,20.7922373793219,2.70669482973028));
#1120=CARTESIAN_POINT('',(7.,21.,1.35722771388242));
#1121=CARTESIAN_POINT('',(7.,21.,-3.34161767528536E-15));
#1122=CARTESIAN_POINT('',(0.,22.,8.08290376865476));
#1123=CARTESIAN_POINT('',(0.,22.,8.08290376865476));
#1124=CARTESIAN_POINT('',(1.38562805038215E-16,20.4585481156726,8.08290376865476));
#1125=CARTESIAN_POINT('',(3.5,21.,6.06217782649107));
#1126=CARTESIAN_POINT('',(4.66843005569496,21.,5.38758441930634));
#1127=CARTESIAN_POINT('',(5.85117353333751,20.7901857505625,4.70472715410714));
#1128=CARTESIAN_POINT('',(7.00000000000001,20.4585481156726,4.04145188432738));
#1129=CARTESIAN_POINT('',(3.5,21.,6.06217782649107));
#1130=CARTESIAN_POINT('',(-2.30009799618536E-16,20.4585481156726,8.08290376865476));
#1131=CARTESIAN_POINT('',(1.15555945268864,20.7921293962098,7.41574120758036));
#1132=CARTESIAN_POINT('',(2.32023921783088,21.,6.74331303165578));
#1133=CARTESIAN_POINT('',(3.5,21.,6.06217782649107));
#1134=CARTESIAN_POINT('',(-7.,22.,4.04145188432738));
#1135=CARTESIAN_POINT('',(-3.5,21.,6.06217782649107));
#1136=CARTESIAN_POINT('',(-2.33156994430505,21.,6.7367712336758));
#1137=CARTESIAN_POINT('',(-1.1488264666625,20.7901857505625,7.419628498875));
#1138=CARTESIAN_POINT('',(9.77863038260561E-16,20.4585481156726,8.08290376865476));
#1139=CARTESIAN_POINT('',(-3.5,21.,6.06217782649107));
#1140=CARTESIAN_POINT('',(-7.,20.4585481156726,4.04145188432738));
#1141=CARTESIAN_POINT('',(-5.84444054731136,20.7921293962098,4.70861444540178));
#1142=CARTESIAN_POINT('',(-4.67976078216913,21.,5.38104262132636));
#1143=CARTESIAN_POINT('',(-3.5,21.,6.06217782649107));
#1144=CARTESIAN_POINT('',(0.,71.,0.));
#1145=CARTESIAN_POINT('',(0.,71.,0.));
#1146=CARTESIAN_POINT('',(0.,71.,-3.));
#1147=CARTESIAN_POINT('',(0.,71.,0.));
#1148=CARTESIAN_POINT('',(0.,70.,0.));
#1149=CARTESIAN_POINT('',(0.,70.,-4.));
#1150=CARTESIAN_POINT('',(0.,0.,0.));
#1151=CARTESIAN_POINT('',(0.,21.,0.));
#1152=CARTESIAN_POINT('',(0.,21.,-4.));
#1153=CARTESIAN_POINT('',(0.,21.,-7.105427357601E-15));
#1154=CARTESIAN_POINT('',(0.,21.,-7.105427357601E-15));
#1155=CARTESIAN_POINT('',(0.,21.,-7.105427357601E-15));
#1156=CARTESIAN_POINT('',(0.,21.,-7.105427357601E-15));
#1157=CARTESIAN_POINT('',(0.,21.,-7.105427357601E-15));
#1158=CARTESIAN_POINT('',(0.,21.,-7.105427357601E-15));
#1159=CARTESIAN_POINT('',(0.,21.,-7.105427357601E-15));
#1160=CARTESIAN_POINT('',(0.,21.,-7.105427357601E-15));
#1161=CARTESIAN_POINT('',(0.,21.,-7.105427357601E-15));
#1162=CARTESIAN_POINT('',(0.,21.,-7.105427357601E-15));
#1163=CARTESIAN_POINT('',(0.,21.,-7.105427357601E-15));
#1164=CARTESIAN_POINT('',(0.,21.,-7.105427357601E-15));
#1165=CARTESIAN_POINT('',(0.,21.,-7.105427357601E-15));
#1166=CARTESIAN_POINT('',(0.,0.,0.));
#1167=CARTESIAN_POINT('',(0.,0.,0.));
#1168=CARTESIAN_POINT('',(7.,0.541451884327383,-4.04145188432738));
#1169=CARTESIAN_POINT('',(5.84444054731136,0.207870603790182,-4.70861444540178));
#1170=CARTESIAN_POINT('',(4.67976078216912,3.74696131018142E-15,-5.38104262132636));
#1171=CARTESIAN_POINT('',(3.5,3.57786716920138E-15,-6.06217782649107));
#1172=CARTESIAN_POINT('',(7.,0.541451884327384,-4.04145188432738));
#1173=CARTESIAN_POINT('',(3.5,0.,-6.06217782649107));
#1174=CARTESIAN_POINT('',(7.,3.46944695194888E-15,-1.12531939900862E-15));
#1175=CARTESIAN_POINT('',(7.,3.57798078456855E-15,-1.35025989778017));
#1176=CARTESIAN_POINT('',(7.,0.212202455735004,-2.72445416995786));
#1177=CARTESIAN_POINT('',(7.,0.541451884327384,-4.04145188432738));
#1178=CARTESIAN_POINT('',(7.,0.,0.));
#1179=CARTESIAN_POINT('',(0.,0.,0.));
#1180=CARTESIAN_POINT('',(0.,0.,0.));
#1181=CARTESIAN_POINT('',(3.5,3.36102673470408E-15,-6.06217782649107));
#1182=CARTESIAN_POINT('',(2.33156994430505,3.36102673470408E-15,-6.7367712336758));
#1183=CARTESIAN_POINT('',(1.14882646666249,0.209814249437482,-7.419628498875));
#1184=CARTESIAN_POINT('',(-3.78915618781327E-15,0.541451884327361,-8.08290376865476));
#1185=CARTESIAN_POINT('',(0.,0.541451884327383,-8.08290376865476));
#1186=CARTESIAN_POINT('',(0.,0.,0.));
#1187=CARTESIAN_POINT('',(-3.5,0.,-6.06217782649107));
#1188=CARTESIAN_POINT('',(2.94003802903337E-16,0.541451884327383,-8.08290376865476));
#1189=CARTESIAN_POINT('',(-1.15555945268864,0.207870603790182,-7.41574120758036));
#1190=CARTESIAN_POINT('',(-2.32023921783088,3.31875319945907E-15,-6.74331303165578));
#1191=CARTESIAN_POINT('',(-3.5,3.36102673470408E-15,-6.06217782649107));
#1192=CARTESIAN_POINT('',(0.,0.,0.));
#1193=CARTESIAN_POINT('',(-3.5,3.36102673470408E-15,-6.06217782649107));
#1194=CARTESIAN_POINT('',(-4.66843005569495,3.40289426402637E-15,-5.38758441930634));
#1195=CARTESIAN_POINT('',(-5.85117353333751,0.209814249437482,-4.70472715410714));
#1196=CARTESIAN_POINT('',(-7.,0.541451884327361,-4.04145188432738));
#1197=CARTESIAN_POINT('',(-7.,0.541451884327384,-4.04145188432738));
#1198=CARTESIAN_POINT('',(0.,0.,0.));
#1199=CARTESIAN_POINT('',(-7.,0.,0.));
#1200=CARTESIAN_POINT('',(-7.,0.541451884327384,-4.04145188432738));
#1201=CARTESIAN_POINT('',(-7.,0.207762620678109,-2.70669482973028));
#1202=CARTESIAN_POINT('',(-7.,3.23356570780869E-15,-1.35722771388241));
#1203=CARTESIAN_POINT('',(-7.,3.46944695194888E-15,2.43314912021375E-15));
#1204=CARTESIAN_POINT('',(0.,0.,0.));
#1205=CARTESIAN_POINT('',(7.,0.541451884327384,4.04145188432738));
#1206=CARTESIAN_POINT('',(7.,0.207762620678109,2.70669482973028));
#1207=CARTESIAN_POINT('',(7.,3.23356570780869E-15,1.35722771388241));
#1208=CARTESIAN_POINT('',(7.,3.46944695194888E-15,-2.43314912021375E-15));
#1209=CARTESIAN_POINT('',(7.,0.541451884327384,4.04145188432738));
#1210=CARTESIAN_POINT('',(3.5,3.36102673470408E-15,6.06217782649107));
#1211=CARTESIAN_POINT('',(4.66843005569495,3.40289426402637E-15,5.38758441930634));
#1212=CARTESIAN_POINT('',(5.85117353333751,0.209814249437482,4.70472715410714));
#1213=CARTESIAN_POINT('',(7.,0.541451884327361,4.04145188432738));
#1214=CARTESIAN_POINT('',(3.5,0.,6.06217782649107));
#1215=CARTESIAN_POINT('',(0.,0.,0.));
#1216=CARTESIAN_POINT('',(0.,0.,0.));
#1217=CARTESIAN_POINT('',(-7.,3.46944695194888E-15,1.12531939900862E-15));
#1218=CARTESIAN_POINT('',(-7.,3.57798078456855E-15,1.35025989778017));
#1219=CARTESIAN_POINT('',(-7.,0.212202455735004,2.72445416995786));
#1220=CARTESIAN_POINT('',(-7.,0.541451884327384,4.04145188432738));
#1221=CARTESIAN_POINT('',(-7.,0.541451884327384,4.04145188432738));
#1222=CARTESIAN_POINT('',(0.,0.,0.));
#1223=CARTESIAN_POINT('',(-3.5,0.,6.06217782649107));
#1224=CARTESIAN_POINT('',(-7.,0.541451884327383,4.04145188432738));
#1225=CARTESIAN_POINT('',(-5.84444054731136,0.207870603790182,4.70861444540178));
#1226=CARTESIAN_POINT('',(-4.67976078216912,3.74696131018142E-15,5.38104262132636));
#1227=CARTESIAN_POINT('',(-3.5,3.57786716920138E-15,6.06217782649107));
#1228=CARTESIAN_POINT('',(0.,4.,0.));
#1229=CARTESIAN_POINT('',(-7.,5.45854811567261,4.04145188432738));
#1230=CARTESIAN_POINT('',(-7.,5.79223737932189,2.70669482973028));
#1231=CARTESIAN_POINT('',(-7.,6.,1.35722771388241));
#1232=CARTESIAN_POINT('',(-7.,5.99999999999999,-2.96836853455052E-15));
#1233=CARTESIAN_POINT('',(-7.,5.45854811567262,4.04145188432738));
#1234=CARTESIAN_POINT('',(-7.,6.,0.));
#1235=CARTESIAN_POINT('',(-3.5,5.99999999999999,6.06217782649107));
#1236=CARTESIAN_POINT('',(-4.66843005569495,5.99999999999999,5.38758441930634));
#1237=CARTESIAN_POINT('',(-5.85117353333751,5.79018575056252,4.70472715410714));
#1238=CARTESIAN_POINT('',(-7.00000000000001,5.45854811567264,4.04145188432738));
#1239=CARTESIAN_POINT('',(-3.5,6.,6.06217782649107));
#1240=CARTESIAN_POINT('',(0.,6.,0.));
#1241=CARTESIAN_POINT('',(0.,4.,0.));
#1242=CARTESIAN_POINT('',(-7.,5.99999999999999,5.01037058372462E-16));
#1243=CARTESIAN_POINT('',(-7.,5.99999999999999,-1.35025989778017));
#1244=CARTESIAN_POINT('',(-7.,5.787797544265,-2.72445416995786));
#1245=CARTESIAN_POINT('',(-7.,5.45854811567262,-4.04145188432738));
#1246=CARTESIAN_POINT('',(-7.,5.45854811567262,-4.04145188432738));
#1247=CARTESIAN_POINT('',(0.,6.,0.));
#1248=CARTESIAN_POINT('',(-3.5,6.,-6.06217782649107));
#1249=CARTESIAN_POINT('',(-7.,5.45854811567262,-4.04145188432738));
#1250=CARTESIAN_POINT('',(-5.84444054731136,5.79212939620982,-4.70861444540178));
#1251=CARTESIAN_POINT('',(-4.67976078216912,5.99999999999999,-5.38104262132637));
#1252=CARTESIAN_POINT('',(-3.5,5.99999999999999,-6.06217782649107));
#1253=CARTESIAN_POINT('',(0.,4.,0.));
#1254=CARTESIAN_POINT('',(-3.5,5.99999999999999,-6.06217782649107));
#1255=CARTESIAN_POINT('',(-2.33156994430505,5.99999999999999,-6.7367712336758));
#1256=CARTESIAN_POINT('',(-1.14882646666249,5.79018575056252,-7.419628498875));
#1257=CARTESIAN_POINT('',(4.01080543680145E-15,5.45854811567264,-8.08290376865476));
#1258=CARTESIAN_POINT('',(0.,5.45854811567262,-8.08290376865476));
#1259=CARTESIAN_POINT('',(0.,6.,0.));
#1260=CARTESIAN_POINT('',(3.5,6.,-6.06217782649107));
#1261=CARTESIAN_POINT('',(-4.58266758441207E-16,5.45854811567262,-8.08290376865476));
#1262=CARTESIAN_POINT('',(1.15555945268864,5.79212939620982,-7.41574120758036));
#1263=CARTESIAN_POINT('',(2.32023921783088,5.99999999999999,-6.74331303165578));
#1264=CARTESIAN_POINT('',(3.5,5.99999999999999,-6.06217782649107));
#1265=CARTESIAN_POINT('',(0.,4.,0.));
#1266=CARTESIAN_POINT('',(3.5,5.99999999999999,-6.06217782649107));
#1267=CARTESIAN_POINT('',(4.66843005569495,5.99999999999999,-5.38758441930634));
#1268=CARTESIAN_POINT('',(5.85117353333751,5.79018575056252,-4.70472715410714));
#1269=CARTESIAN_POINT('',(7.00000000000001,5.45854811567264,-4.04145188432738));
#1270=CARTESIAN_POINT('',(7.,5.45854811567262,-4.04145188432738));
#1271=CARTESIAN_POINT('',(0.,6.,0.));
#1272=CARTESIAN_POINT('',(7.,6.,0.));
#1273=CARTESIAN_POINT('',(7.,5.45854811567261,-4.04145188432738));
#1274=CARTESIAN_POINT('',(7.,5.79223737932189,-2.70669482973028));
#1275=CARTESIAN_POINT('',(7.,6.,-1.35722771388241));
#1276=CARTESIAN_POINT('',(7.,5.99999999999999,2.96836853455052E-15));
#1277=CARTESIAN_POINT('',(0.,4.,0.));
#1278=CARTESIAN_POINT('',(7.,5.99999999999999,-5.01037058372462E-16));
#1279=CARTESIAN_POINT('',(7.,5.99999999999999,1.35025989778017));
#1280=CARTESIAN_POINT('',(7.,5.787797544265,2.72445416995786));
#1281=CARTESIAN_POINT('',(7.,5.45854811567262,4.04145188432738));
#1282=CARTESIAN_POINT('',(7.,5.45854811567262,4.04145188432738));
#1283=CARTESIAN_POINT('',(0.,6.,0.));
#1284=CARTESIAN_POINT('',(3.5,6.,6.06217782649107));
#1285=CARTESIAN_POINT('',(7.,5.45854811567262,4.04145188432738));
#1286=CARTESIAN_POINT('',(5.84444054731136,5.79212939620982,4.70861444540178));
#1287=CARTESIAN_POINT('',(4.67976078216912,5.99999999999999,5.38104262132636));
#1288=CARTESIAN_POINT('',(3.5,5.99999999999999,6.06217782649107));
#1289=CARTESIAN_POINT('',(0.,6.,0.));
#1290=CARTESIAN_POINT('',(0.,5.3235,0.));
#1291=CARTESIAN_POINT('',(0.,5.3235,-3.3235));
#1292=CARTESIAN_POINT('',(0.,6.,0.));
#1293=CARTESIAN_POINT('',(0.,6.,-4.));
#1294=CARTESIAN_POINT('',(0.,-50.,0.));
#1295=CARTESIAN_POINT('',(0.,0.676499999999997,0.));
#1296=CARTESIAN_POINT('',(0.,0.676499999999997,-3.3235));
#1297=CARTESIAN_POINT('',(0.,0.676499999999997,0.));
#1298=CARTESIAN_POINT('',(0.,0.,0.));
#1299=CARTESIAN_POINT('',(0.,0.,-4.));
#1300=CARTESIAN_POINT('',(0.,0.,-4.));
#1301=CARTESIAN_POINT('',(0.,0.,0.));
#1302=CARTESIAN_POINT('',(0.,0.,0.));
#1303=CARTESIAN_POINT('',(-2.94003802903337E-16,0.541451884327383,8.08290376865476));
#1304=CARTESIAN_POINT('',(1.15555945268864,0.207870603790182,7.41574120758036));
#1305=CARTESIAN_POINT('',(2.32023921783088,3.31875319945907E-15,6.74331303165578));
#1306=CARTESIAN_POINT('',(3.5,3.36102673470408E-15,6.06217782649107));
#1307=CARTESIAN_POINT('',(0.,0.541451884327383,8.08290376865476));
#1308=CARTESIAN_POINT('',(-3.5,3.36102673470408E-15,6.06217782649107));
#1309=CARTESIAN_POINT('',(-2.33156994430505,3.36102673470408E-15,6.7367712336758));
#1310=CARTESIAN_POINT('',(-1.14882646666249,0.209814249437482,7.419628498875));
#1311=CARTESIAN_POINT('',(3.78915618781327E-15,0.541451884327361,8.08290376865476));
#1312=CARTESIAN_POINT('',(0.,4.,0.));
#1313=CARTESIAN_POINT('',(3.5,5.99999999999999,6.06217782649107));
#1314=CARTESIAN_POINT('',(2.33156994430505,5.99999999999999,6.7367712336758));
#1315=CARTESIAN_POINT('',(1.14882646666249,5.79018575056252,7.419628498875));
#1316=CARTESIAN_POINT('',(-4.01080543680145E-15,5.45854811567264,8.08290376865476));
#1317=CARTESIAN_POINT('',(0.,5.45854811567262,8.08290376865476));
#1318=CARTESIAN_POINT('',(0.,6.,0.));
#1319=CARTESIAN_POINT('',(4.58266758441207E-16,5.45854811567262,8.08290376865476));
#1320=CARTESIAN_POINT('',(-1.15555945268864,5.79212939620982,7.41574120758036));
#1321=CARTESIAN_POINT('',(-2.32023921783088,5.99999999999999,6.74331303165578));
#1322=CARTESIAN_POINT('',(-3.5,5.99999999999999,6.06217782649107));
#1323=CARTESIAN_POINT('',(0.,6.,-6.99999999999999));
#1324=CARTESIAN_POINT('',(-7.,6.,-4.04145188432738));
#1325=CARTESIAN_POINT('',(-7.,6.,4.04145188432738));
#1326=CARTESIAN_POINT('',(-7.,6.,-4.04145188432738));
#1327=CARTESIAN_POINT('',(0.,6.,-8.08290376865476));
#1328=CARTESIAN_POINT('',(0.,6.,-8.08290376865476));
#1329=CARTESIAN_POINT('',(7.,6.,-4.04145188432738));
#1330=CARTESIAN_POINT('',(7.,6.,-4.04145188432738));
#1331=CARTESIAN_POINT('',(7.,6.,4.04145188432738));
#1332=CARTESIAN_POINT('',(7.,6.,4.04145188432738));
#1333=CARTESIAN_POINT('',(0.,6.,8.08290376865476));
#1334=CARTESIAN_POINT('',(0.,6.,8.08290376865476));
#1335=CARTESIAN_POINT('',(-7.,6.,4.04145188432738));
#1336=CARTESIAN_POINT('',(0.,47.,0.));
#1337=MECHANICAL_DESIGN_GEOMETRIC_PRESENTATION_REPRESENTATION('',(#696,
#697),#1338);
#1338=(
GEOMETRIC_REPRESENTATION_CONTEXT(3)
GLOBAL_UNCERTAINTY_ASSIGNED_CONTEXT((#1341))
GLOBAL_UNIT_ASSIGNED_CONTEXT((#1346,#1345,#1344))
REPRESENTATION_CONTEXT('WAD36-D40-M8-L50','TOP_LEVEL_ASSEMBLY_PART')
);
#1339=(
GEOMETRIC_REPRESENTATION_CONTEXT(3)
GLOBAL_UNCERTAINTY_ASSIGNED_CONTEXT((#1342))
GLOBAL_UNIT_ASSIGNED_CONTEXT((#1346,#1345,#1344))
REPRESENTATION_CONTEXT('WAD36-D40-M8-L50-001','COMPONENT_PART')
);
#1340=(
GEOMETRIC_REPRESENTATION_CONTEXT(3)
GLOBAL_UNCERTAINTY_ASSIGNED_CONTEXT((#1343))
GLOBAL_UNIT_ASSIGNED_CONTEXT((#1346,#1345,#1344))
REPRESENTATION_CONTEXT('WAD36-D40-M8-L50-002','COMPONENT_PART')
);
#1341=UNCERTAINTY_MEASURE_WITH_UNIT(LENGTH_MEASURE(1.E-5),#1346,
'DISTANCE_ACCURACY_VALUE','Maximum Tolerance applied to model');
#1342=UNCERTAINTY_MEASURE_WITH_UNIT(LENGTH_MEASURE(1.E-5),#1346,
'DISTANCE_ACCURACY_VALUE','Maximum Tolerance applied to model');
#1343=UNCERTAINTY_MEASURE_WITH_UNIT(LENGTH_MEASURE(1.E-5),#1346,
'DISTANCE_ACCURACY_VALUE','Maximum Tolerance applied to model');
#1344=(
NAMED_UNIT(*)
SI_UNIT($,.STERADIAN.)
SOLID_ANGLE_UNIT()
);
#1345=(
NAMED_UNIT(*)
PLANE_ANGLE_UNIT()
SI_UNIT($,.RADIAN.)
);
#1346=(
LENGTH_UNIT()
NAMED_UNIT(*)
SI_UNIT(.MILLI.,.METRE.)
);
#1347=PRODUCT_DEFINITION_SHAPE('','',#1352);
#1348=PRODUCT_DEFINITION_SHAPE('','',#1353);
#1349=PRODUCT_DEFINITION_SHAPE(' ','NAUO PRDDFN',#20);
#1350=PRODUCT_DEFINITION_SHAPE('','',#1354);
#1351=PRODUCT_DEFINITION_SHAPE(' ','NAUO PRDDFN',#21);
#1352=PRODUCT_DEFINITION('','',#1358,#1355);
#1353=PRODUCT_DEFINITION('','',#1359,#1356);
#1354=PRODUCT_DEFINITION('','',#1360,#1357);
#1355=PRODUCT_DEFINITION_CONTEXT('',#1374,'design');
#1356=PRODUCT_DEFINITION_CONTEXT('',#1374,'design');
#1357=PRODUCT_DEFINITION_CONTEXT('',#1374,'design');
#1358=PRODUCT_DEFINITION_FORMATION_WITH_SPECIFIED_SOURCE('','',#1364,
 .NOT_KNOWN.);
#1359=PRODUCT_DEFINITION_FORMATION_WITH_SPECIFIED_SOURCE('','',#1365,
 .NOT_KNOWN.);
#1360=PRODUCT_DEFINITION_FORMATION_WITH_SPECIFIED_SOURCE('','',#1366,
 .NOT_KNOWN.);
#1361=PRODUCT_RELATED_PRODUCT_CATEGORY('','',(#1364));
#1362=PRODUCT_RELATED_PRODUCT_CATEGORY('','',(#1365));
#1363=PRODUCT_RELATED_PRODUCT_CATEGORY('','',(#1366));
#1364=PRODUCT('WAD36-D40-M8-L50','WAD36-D40-M8-L50','WAD36-D40-M8-L50',
(#1370));
#1365=PRODUCT('WAD36-D40-M8-L50-001','WAD36-D40-M8-L50-001',
'WAD36-D40-M8-L50-001',(#1371));
#1366=PRODUCT('WAD36-D40-M8-L50-002','WAD36-D40-M8-L50-002',
'WAD36-D40-M8-L50-002',(#1372));
#1367=PRODUCT_CATEGORY('','');
#1368=PRODUCT_CATEGORY('','');
#1369=PRODUCT_CATEGORY('','');
#1370=PRODUCT_CONTEXT('',#1374,'mechanical');
#1371=PRODUCT_CONTEXT('',#1374,'mechanical');
#1372=PRODUCT_CONTEXT('',#1374,'mechanical');
#1373=APPLICATION_PROTOCOL_DEFINITION('international standard',
'automotive_design',2010,#1374);
#1374=APPLICATION_CONTEXT(
'core data for automotive mechanical design processes');
ENDSEC;
END-ISO-10303-21;
